<svg width="30" height="30" viewBox="0 0 30 30" fill="none" xmlns="http://www.w3.org/2000/svg">
<path fill-rule="evenodd" clip-rule="evenodd" d="M26.1416 20.3934L25.1805 12.6501C24.5949 9.88705 22.9378 8.75 21.3581 8.75H8.66464C7.06277 8.75 5.35043 9.80746 4.8533 12.6501L3.88113 20.3934C3.08572 26.0787 6.01327 27.5 9.83566 27.5H20.1981C24.0094 27.5 26.8486 25.4419 26.1416 20.3934ZM11.3712 15.1857C10.7611 15.1857 10.2665 14.6766 10.2665 14.0487C10.2665 13.4207 10.7611 12.9116 11.3712 12.9116C11.9814 12.9116 12.476 13.4207 12.476 14.0487C12.476 14.6766 11.9814 15.1857 11.3712 15.1857ZM17.5025 14.0487C17.5025 14.6766 17.9971 15.1857 18.6073 15.1857C19.2174 15.1857 19.712 14.6766 19.712 14.0487C19.712 13.4207 19.2174 12.9116 18.6073 12.9116C17.9971 12.9116 17.5025 13.4207 17.5025 14.0487Z" fill="#130F26"/>
<path opacity="0.4" d="M21.2173 8.46791C21.2213 8.56486 21.2026 8.66141 21.1629 8.75H19.3665C19.3317 8.65993 19.3133 8.56441 19.3121 8.46791C19.3121 6.07103 17.3623 4.12798 14.9572 4.12798C12.552 4.12798 10.6023 6.07103 10.6023 8.46791C10.6188 8.56122 10.6188 8.65669 10.6023 8.75H8.76236C8.74588 8.65669 8.74588 8.56122 8.76236 8.46791C8.90215 5.13239 11.6562 2.5 15.0062 2.5C18.3561 2.5 21.1102 5.13239 21.25 8.46791H21.2173Z" fill="#130F26"/>
</svg>
