<svg width="42" height="42" viewBox="0 0 42 42" fill="none" xmlns="http://www.w3.org/2000/svg">
<path fill-rule="evenodd" clip-rule="evenodd" d="M11.2716 0.16748H30.7279C37.8133 0.16748 41.8133 4.18623 41.8342 11.2716V30.73C41.8342 37.8133 37.8133 41.8342 30.7279 41.8342H11.2716C4.18623 41.8342 0.16748 37.8133 0.16748 30.73V11.2716C0.16748 4.18623 4.18623 0.16748 11.2716 0.16748ZM21.1029 33.2091C22.0008 33.2091 22.7487 32.5425 22.8321 31.6466V10.4175C22.9154 9.77165 22.605 9.12373 22.0425 8.77165C21.4571 8.41748 20.7487 8.41748 20.1883 8.77165C19.6237 9.12373 19.3133 9.77165 19.3737 10.4175V31.6466C19.48 32.5425 20.2279 33.2091 21.1029 33.2091ZM30.6883 33.2091C31.5633 33.2091 32.3112 32.5425 32.4175 31.6466V24.8133C32.4779 24.1446 32.1675 23.5216 31.6029 23.1675C31.0425 22.8133 30.3341 22.8133 29.7508 23.1675C29.1862 23.5216 28.8758 24.1446 28.9591 24.8133V31.6466C29.0425 32.5425 29.7904 33.2091 30.6883 33.2091ZM13.1237 31.6466C13.0404 32.5425 12.2925 33.2091 11.3946 33.2091C10.4987 33.2091 9.74873 32.5425 9.66748 31.6466V17.2508C9.60498 16.6029 9.9154 15.9591 10.48 15.605C11.0404 15.2508 11.7508 15.2508 12.3133 15.605C12.8737 15.9591 13.1883 16.6029 13.1237 17.2508V31.6466Z" fill="#130F26"/>
</svg>
