<svg width="93" height="21" viewBox="0 0 93 21" fill="none" xmlns="http://www.w3.org/2000/svg">
<path d="M9.90547 14.1382L13.7078 14.9733C13.0636 18.0745 10.322 20.0817 7.08641 20.0817C3.20656 20.0817 0 17.2931 0 13.1468C0 9.02982 3.20656 6.21191 7.08641 6.21191C10.2397 6.21191 12.9812 8.1654 13.7078 11.2421L9.82797 12.1798C9.46469 10.5877 8.40391 9.86006 7.08641 9.86006C5.22641 9.86006 3.98156 11.2421 3.98156 13.1468C3.98156 15.0759 5.22156 16.4335 7.08641 16.4335C8.40391 16.4335 9.46469 15.7254 9.90547 14.1382Z" fill="black"/>
<path d="M16.8853 19.691V0.917969H21.0219V19.691H16.8853Z" fill="black"/>
<path d="M25.265 19.6909V6.60254H29.4016V19.6909H25.265Z" fill="black"/>
<path d="M42.6928 14.1382L46.4952 14.9733C45.8509 18.0745 43.1094 20.0817 39.8738 20.0817C35.9939 20.0817 32.7873 17.2931 32.7873 13.1468C32.7873 9.02982 35.9939 6.21191 39.8738 6.21191C43.027 6.21191 45.7686 8.1654 46.4952 11.2421L42.6153 12.1798C42.252 10.5877 41.1913 9.86006 39.8738 9.86006C38.0138 9.86006 36.7689 11.2421 36.7689 13.1468C36.7689 15.0759 38.0089 16.4335 39.8738 16.4335C41.1961 16.4335 42.252 15.7254 42.6928 14.1382Z" fill="black"/>
<path d="M58.7789 19.691L54.5648 14.9733H53.8141V19.691H49.6775V0.917969H53.8141V11.0615H54.3808L58.4931 6.60262H63.4822L57.7908 12.8343L64.0731 19.691H58.7789Z" fill="black"/>
<path d="M77.2191 11.2958C76.9139 11.2958 76.4537 11.7402 76.3908 12.0039C76.323 12.2676 76.0759 11.6181 76.7056 11.3202C77.2045 11.0858 76.1583 10.6609 75.795 10.8953C75.1508 11.3202 74.9473 10.9246 74.8166 11.3397C74.6858 11.7548 74.2547 11.623 73.9737 11.623C73.6928 11.623 73.7267 12.712 74.3806 13.0441C75.1605 13.4348 73.4797 16.0037 72.8742 14.9976C72.3075 14.0599 72.2445 11.0613 72.1864 9.42041H71.9587H71.7311C71.673 11.0613 71.61 14.0551 71.0433 14.9976C70.433 16.0085 68.757 13.4397 69.5369 13.0441C70.1908 12.712 70.2295 11.623 69.9438 11.623C69.658 11.623 69.2317 11.7548 69.1009 11.3397C68.9702 10.9246 68.7716 11.3153 68.1225 10.8953C67.7592 10.656 66.713 11.0809 67.2119 11.3202C67.8416 11.6181 67.5945 12.2676 67.5267 12.0039C67.4589 11.7402 67.0036 11.2958 66.6984 11.2958C66.6936 11.2958 65.3713 11.2958 65.3713 11.2958V13.3176C65.3713 16.9853 68.3211 19.9595 71.9587 19.9595C75.5964 19.9595 78.5462 16.9853 78.5462 13.3176V11.2958C78.5414 11.2958 77.2239 11.2958 77.2191 11.2958Z" fill="black"/>
<path d="M71.1256 2.98886L69.4545 5.90444C69.0864 6.54909 69.5466 7.35002 70.2828 7.35002H70.9948C71.1644 7.35002 71.3242 7.44281 71.4114 7.58932L71.9539 8.53676L72.4964 7.58932C72.5836 7.43793 72.7386 7.35002 72.913 7.35002H73.625C74.3612 7.35002 74.8214 6.54421 74.4533 5.90444L72.7822 2.98886C72.4141 2.34421 71.4937 2.34421 71.1256 2.98886Z" fill="#FF2A01"/>
<path d="M85.0369 15.4421C85.2161 16.5654 86.2284 16.9805 87.3377 16.9805C88.4227 16.9805 89.0184 16.5117 89.0184 15.9354C89.0184 15.491 88.6842 15.154 87.7252 14.9684L85.0853 14.4459C82.678 14.0014 81.312 12.6975 81.312 10.6414C81.312 7.9554 83.6128 6.20703 86.8969 6.20703C90.1277 6.20703 92.2734 7.69168 92.7917 9.96261L89.0184 10.7196C88.8877 9.91377 88.1127 9.18122 86.8484 9.18122C85.7344 9.18122 85.3759 9.72819 85.3759 10.197C85.3759 10.5633 85.5309 10.9247 86.3592 11.1103L89.4108 11.7354C91.8666 12.258 93.0048 13.7426 93.0048 15.6717C93.0048 18.5677 90.52 20.0768 87.11 20.0768C84.0584 20.0768 81.4477 18.9535 81.0069 16.2724L85.0369 15.4421Z" fill="black"/>
</svg>
