<svg width="410" height="465" viewBox="0 0 410 465" fill="none" xmlns="http://www.w3.org/2000/svg">
<path d="M133.288 246.058L32.3688 246.673C10.0978 246.809 -3.67602 270.751 7.58187 289.773L18.4482 308.14C21.062 312.553 21.0913 318.012 18.5363 322.458L2.28577 350.717L35.1392 350.518C40.3081 350.489 45.1 353.187 47.7089 357.6L58.5752 375.967C69.8282 394.989 97.6695 394.819 108.688 375.662L158.609 288.862C169.627 269.695 155.559 245.922 133.288 246.058Z" fill="#EBEEF1"/>
<path d="M157.082 178.163L106.084 91.9734C94.8306 72.952 66.9894 73.1215 55.9713 92.2785L45.3351 110.777C42.78 115.223 38.0223 117.979 32.8535 118.013L0 118.212L16.6029 146.267C19.2167 150.68 19.2461 156.139 16.6911 160.585L6.05479 179.083C-4.96326 198.24 9.10421 222.014 31.3753 221.878L132.295 221.263C154.566 221.127 168.335 197.185 157.082 178.163Z" fill="#EBEEF1"/>
<path d="M228.393 164.605L278.315 77.8052C289.333 58.6481 275.265 34.875 252.994 35.0106L231.492 35.1414C226.323 35.1705 221.531 32.4725 218.917 28.0599L202.314 0L186.064 28.2584C183.509 32.705 178.751 35.4611 173.582 35.495L152.079 35.6258C129.808 35.7614 116.035 59.7041 127.293 78.7255L178.291 164.91C189.534 183.927 217.375 183.762 228.393 164.605Z" fill="#EBEEF1"/>
<path d="M275.911 218.942L376.831 218.327C399.102 218.192 412.876 194.249 401.618 175.228L390.752 156.86C388.138 152.447 388.108 146.988 390.663 142.542L406.914 114.283L374.061 114.482C368.892 114.511 364.1 111.813 361.491 107.4L350.625 89.033C339.372 70.0116 311.53 70.1811 300.512 89.3382L250.591 176.138C239.573 195.305 253.64 219.078 275.911 218.942Z" fill="#EBEEF1"/>
<path d="M252.118 286.837L303.116 373.022C314.369 392.043 342.211 391.874 353.229 372.717L363.865 354.219C366.42 349.772 371.178 347.016 376.347 346.982L409.2 346.783L392.597 318.728C389.983 314.316 389.954 308.857 392.509 304.41L403.145 285.912C414.163 266.755 400.096 242.982 377.825 243.118L276.905 243.733C254.634 243.873 240.865 267.816 252.118 286.837Z" fill="#EBEEF1"/>
<path d="M180.807 300.395L130.885 387.195C119.867 406.352 133.935 430.125 156.206 429.989L177.708 429.859C182.877 429.83 187.669 432.528 190.283 436.94L206.886 465L223.136 436.742C225.691 432.295 230.449 429.539 235.618 429.505L257.121 429.374C279.392 429.239 293.165 405.296 281.907 386.275L230.919 300.09C219.666 281.073 191.825 281.238 180.807 300.395Z" fill="#EBEEF1"/>
</svg>
