<svg width="480" height="533" viewBox="0 0 480 533" fill="none" xmlns="http://www.w3.org/2000/svg">
<path d="M27.0033 328.475L27.0031 328.474C15.5363 308.871 29.5682 284.203 52.2424 284.063L52.2301 282.063L52.2424 284.063L161.983 283.386C184.656 283.247 198.988 307.739 187.765 327.494L133.48 422.996C122.261 442.735 93.9122 442.909 82.4535 423.311L80.727 424.32L82.4535 423.311L70.6378 403.102C70.6377 403.102 70.6376 403.102 70.6375 403.102C67.4397 397.63 61.5662 394.284 55.2313 394.32L55.2304 394.32L22.9669 394.517L38.9274 366.435L38.9277 366.434C42.0575 360.923 42.0227 354.156 38.8188 348.683L27.0033 328.475Z" stroke="#FF2A01" stroke-opacity="0.2" stroke-width="4"/>
<path d="M20.5065 142.701L52.7693 142.504L52.7703 142.504C59.1055 142.462 64.9369 139.044 68.0684 133.53C68.0685 133.53 68.0686 133.53 68.0687 133.529L79.6342 113.177C90.854 93.4387 119.202 93.2644 130.661 112.863L130.661 112.863L186.117 207.694C186.117 207.694 186.117 207.694 186.117 207.694C197.579 227.298 183.551 251.965 160.877 252.105L51.1373 252.782C28.4635 252.922 14.1321 228.429 25.3549 208.685L25.355 208.685L36.9209 188.332L36.9211 188.332C40.0508 182.821 40.0161 176.053 36.8126 170.581C36.8125 170.58 36.8123 170.58 36.8122 170.58L20.5065 142.701Z" stroke="#FF2A01" stroke-opacity="0.2" stroke-width="4"/>
<path d="M268.768 51.3234L268.769 51.3234L292.151 51.1795C314.824 51.0398 329.156 75.5326 317.933 95.2764L263.648 190.779C252.429 210.518 224.081 210.686 212.633 191.094L212.632 191.093L157.177 96.2676L157.177 96.2675C145.71 76.6639 159.742 51.9961 182.416 51.8564L205.798 51.7125L205.799 51.7125C212.134 51.6704 217.965 48.2524 221.097 42.7386C221.097 42.7384 221.097 42.7382 221.097 42.738L237.053 14.6629L253.356 42.5415L253.357 42.5423C256.56 48.0134 262.432 51.3595 268.768 51.3234Z" stroke="#FF2A01" stroke-opacity="0.2" stroke-width="4"/>
<path d="M456.062 138.421L440.101 166.504L440.101 166.504C436.971 172.015 437.006 178.783 440.21 184.256L452.025 204.464L452.026 204.464C463.492 224.068 449.46 248.736 426.786 248.876L317.046 249.552C294.373 249.692 280.04 225.2 291.264 205.445C291.264 205.445 291.264 205.445 291.264 205.445L345.548 109.942C356.768 90.2037 385.116 90.0295 396.575 109.628L408.391 129.836C408.391 129.836 408.391 129.837 408.391 129.837C411.589 135.309 417.462 138.655 423.797 138.619L423.798 138.619L456.062 138.421Z" stroke="#FF2A01" stroke-opacity="0.2" stroke-width="4"/>
<path d="M458.522 390.232L426.259 390.429L426.258 390.429C419.923 390.471 414.092 393.889 410.96 399.403C410.96 399.403 410.96 399.404 410.96 399.404L399.395 419.756L458.522 390.232ZM458.522 390.232L442.216 362.353C442.216 362.353 442.216 362.353 442.216 362.353C439.012 356.88 438.978 350.113 442.107 344.602L442.108 344.601L453.674 324.248L453.674 324.248C464.897 304.504 450.565 280.012 427.891 280.151L318.152 280.828C318.151 280.828 318.151 280.828 318.151 280.828C295.477 280.973 281.45 305.641 292.912 325.245C292.912 325.245 292.912 325.245 292.912 325.245L348.368 420.07L348.368 420.071C359.826 439.669 388.174 439.495 399.394 419.756L458.522 390.232Z" stroke="#FF2A01" stroke-opacity="0.2" stroke-width="4"/>
<path d="M210.261 481.615H210.26L186.878 481.759C164.204 481.899 149.873 457.406 161.096 437.662L159.357 436.674L161.096 437.662L215.38 342.16C226.6 322.422 254.948 322.252 266.407 341.845L321.852 436.671L321.852 436.671C333.319 456.275 319.287 480.943 296.613 481.082L273.231 481.226L273.23 481.226C266.895 481.268 261.064 484.686 257.932 490.2C257.932 490.2 257.932 490.2 257.932 490.201L241.975 518.276L225.672 490.397L225.672 490.396C222.469 484.925 216.596 481.579 210.261 481.615Z" stroke="#FF2A01" stroke-opacity="0.2" stroke-width="4"/>
</svg>
