<svg width="34" height="35" viewBox="0 0 34 35" fill="none" xmlns="http://www.w3.org/2000/svg">
<rect x="0.5" y="1.21436" width="32.7143" height="32.7143" rx="16.3571" stroke="#595959"/>
<path d="M15.8799 23.1911C15.8779 23.1414 15.8743 23.0917 15.8743 23.0421C15.8743 21.3527 15.8743 19.6633 15.8743 17.9739V17.8118H14.0476V15.7135H15.874V15.5652C15.8763 15.0163 15.8624 14.4666 15.8855 13.9181C15.913 13.2571 16.1107 12.651 16.5818 12.1573C16.9406 11.7819 17.3882 11.5693 17.8936 11.4625C18.3042 11.3757 18.7195 11.386 19.134 11.4017C19.4712 11.4144 19.8076 11.4431 20.1445 11.4656C20.1728 11.469 20.2009 11.474 20.2286 11.4806V13.351H20.107C19.6921 13.3573 19.2763 13.351 18.8622 13.3723C18.3723 13.3975 18.0953 13.6665 18.075 14.1543C18.0538 14.6602 18.0678 15.1673 18.0666 15.6741C18.0696 15.6859 18.074 15.6973 18.0798 15.708H20.16C20.0683 16.4131 19.9782 17.1032 19.887 17.8055H18.0734C18.0694 17.8505 18.0638 17.8844 18.0638 17.9163C18.0638 19.6478 18.0638 21.3794 18.0638 23.1111C18.0638 23.1379 18.0678 23.1647 18.0698 23.1899L15.8799 23.1911Z" fill="#595959"/>
</svg>
