<svg width="598" height="687" viewBox="0 0 598 687" fill="none" xmlns="http://www.w3.org/2000/svg">
<path d="M194.525 363.343L47.238 364.251C14.7347 364.451 -5.36739 399.806 11.0629 427.894L26.9216 455.017C30.7363 461.533 30.7792 469.594 27.0502 476.16L3.3335 517.888L51.2813 517.595C58.8249 517.552 65.8185 521.536 69.626 528.052L85.4848 555.174C101.908 583.262 142.541 583.012 158.621 554.723L231.478 426.55C247.559 398.247 227.028 363.142 194.525 363.343Z" fill="#C6CDD8"/>
<path d="M229.252 263.086L154.823 135.813C138.4 107.725 97.7673 107.975 81.687 136.264L66.164 163.579C62.4351 170.145 55.4915 174.215 47.9478 174.265L0 174.558L24.2311 215.986C28.0458 222.502 28.0886 230.563 24.3597 237.129L8.83663 264.445C-7.24361 292.733 13.2871 327.838 45.7905 327.637L193.077 326.729C225.581 326.529 245.675 291.174 229.252 263.086Z" fill="#C6CDD8"/>
<path d="M333.327 243.065L406.184 114.891C422.265 86.6031 401.734 51.4984 369.231 51.6987L337.849 51.8918C330.305 51.9347 323.312 47.9507 319.497 41.4347L295.266 0L271.549 41.728C267.82 48.294 260.877 52.3638 253.333 52.4139L221.951 52.607C189.448 52.8073 169.346 88.1624 185.776 116.25L260.205 243.516C276.614 271.597 317.247 271.354 333.327 243.065Z" fill="#C6CDD8"/>
<path d="M402.675 323.303L549.961 322.394C582.465 322.194 602.567 286.839 586.137 258.751L570.278 231.628C566.463 225.112 566.42 217.051 570.149 210.485L593.866 168.757L545.918 169.051C538.374 169.094 531.381 165.11 527.573 158.594L511.715 131.471C495.291 103.383 454.659 103.633 438.579 131.922L365.721 260.096C349.641 288.398 370.171 323.503 402.675 323.303Z" fill="#C6CDD8"/>
<path d="M367.954 423.56L442.383 550.825C458.806 578.913 499.439 578.663 515.519 550.375L531.042 523.059C534.771 516.493 541.714 512.423 549.258 512.373L597.206 512.08L572.975 470.652C569.16 464.136 569.117 456.075 572.846 449.509L588.369 422.194C604.449 393.905 583.919 358.801 551.415 359.001L404.129 359.909C371.625 360.117 351.53 395.472 367.954 423.56Z" fill="#C6CDD8"/>
<path d="M263.876 443.58L191.019 571.753C174.939 600.042 195.469 635.146 227.973 634.946L259.355 634.753C266.898 634.71 273.892 638.694 277.706 645.21L301.938 686.645L325.654 644.917C329.383 638.351 336.327 634.281 343.87 634.231L375.252 634.038C407.756 633.838 427.858 598.483 411.427 570.394L337.013 443.129C320.589 415.048 279.957 415.291 263.876 443.58Z" fill="#C6CDD8"/>
</svg>
