<svg width="30" height="30" viewBox="0 0 30 30" fill="none" xmlns="http://www.w3.org/2000/svg">
<path d="M25.3125 13.5176C24.7215 13.2581 24.083 13.1244 23.4375 13.125H6.5625C5.91709 13.1244 5.2786 13.2579 4.6875 13.517C3.85207 13.8823 3.14117 14.4832 2.6417 15.246C2.14222 16.0088 1.8758 16.9007 1.875 17.8125V24.375C1.875 24.6236 1.97377 24.8621 2.14959 25.0379C2.3254 25.2137 2.56386 25.3125 2.8125 25.3125C3.06114 25.3125 3.2996 25.2137 3.47541 25.0379C3.65123 24.8621 3.75 24.6236 3.75 24.375V23.9063C3.75152 23.7824 3.80139 23.6641 3.88897 23.5765C3.97655 23.4889 4.0949 23.439 4.21875 23.4375H25.7812C25.9051 23.439 26.0234 23.4889 26.111 23.5765C26.1986 23.6641 26.2485 23.7824 26.25 23.9063V24.375C26.25 24.6236 26.3488 24.8621 26.5246 25.0379C26.7004 25.2137 26.9389 25.3125 27.1875 25.3125C27.4361 25.3125 27.6746 25.2137 27.8504 25.0379C28.0262 24.8621 28.125 24.6236 28.125 24.375V17.8125C28.1241 16.9008 27.8576 16.0091 27.3581 15.2463C26.8587 14.4836 26.1478 13.8829 25.3125 13.5176Z" fill="black"/>
<path d="M22.0312 4.6875H7.96875C7.09851 4.6875 6.26391 5.0332 5.64856 5.64856C5.0332 6.26391 4.6875 7.09851 4.6875 7.96875V12.1875C4.68753 12.2238 4.69599 12.2596 4.71223 12.2921C4.72847 12.3246 4.75204 12.3529 4.78107 12.3747C4.81011 12.3965 4.84382 12.4113 4.87954 12.4179C4.91526 12.4244 4.95202 12.4226 4.98691 12.4125C5.49871 12.2628 6.02927 12.187 6.5625 12.1875H6.81035C6.8682 12.1879 6.92414 12.1668 6.96741 12.1284C7.01068 12.09 7.03822 12.037 7.04473 11.9795C7.09586 11.5214 7.31394 11.0982 7.65732 10.7907C8.0007 10.4832 8.44531 10.313 8.90625 10.3125H12.1875C12.6487 10.3125 13.0938 10.4826 13.4375 10.7901C13.7813 11.0977 13.9996 11.5211 14.0508 11.9795C14.0573 12.037 14.0848 12.09 14.1281 12.1284C14.1714 12.1668 14.2273 12.1879 14.2852 12.1875H15.7184C15.7762 12.1879 15.8322 12.1668 15.8754 12.1284C15.9187 12.09 15.9462 12.037 15.9527 11.9795C16.0038 11.5217 16.2217 11.0987 16.5647 10.7913C16.9077 10.4838 17.3519 10.3134 17.8125 10.3125H21.0938C21.555 10.3125 22 10.4826 22.3438 10.7901C22.6875 11.0977 22.9059 11.5211 22.957 11.9795C22.9635 12.037 22.9911 12.09 23.0343 12.1284C23.0776 12.1668 23.1336 12.1879 23.1914 12.1875H23.4375C23.9708 12.1872 24.5013 12.2632 25.0131 12.4131C25.048 12.4232 25.0848 12.425 25.1206 12.4184C25.1564 12.4118 25.1901 12.397 25.2192 12.3751C25.2482 12.3532 25.2718 12.3249 25.288 12.2923C25.3042 12.2598 25.3126 12.2239 25.3125 12.1875V7.96875C25.3125 7.09851 24.9668 6.26391 24.3514 5.64856C23.7361 5.0332 22.9015 4.6875 22.0312 4.6875Z" fill="black"/>
</svg>
