<svg width="30" height="30" viewBox="0 0 30 30" fill="none" xmlns="http://www.w3.org/2000/svg">
<path fill-rule="evenodd" clip-rule="evenodd" d="M4.71663 11.1918C7.98517 9.41227 9.73308 9.59236 12.4963 8.05908C13.9786 8.38931 17.0692 8.2929 18.0893 8.05908C21.2189 9.52428 23.026 9.72362 25.9666 11.2274C25.7222 12.7976 25.184 14.1544 24.2862 15.2501C23.197 14.6565 22.1665 14.4206 21.1705 14.3957L21.1005 25.0754C16.8096 25.8881 13.1726 25.5369 9.61778 25.0398L9.58277 14.4313C8.331 14.3943 7.37858 14.8647 6.39702 15.2857C5.45296 13.9768 5.01191 12.5949 4.71663 11.1918Z" fill="#130F26" stroke="#130F26" stroke-width="5.77206"/>
<ellipse cx="15.5" cy="4.5" rx="3.5" ry="2.5" fill="white"/>
</svg>
