<svg width="30" height="30" viewBox="0 0 30 30" fill="none" xmlns="http://www.w3.org/2000/svg">
<path opacity="0.4" d="M16.6314 7.35304V7.58184C16.018 7.5698 15.4047 7.5698 14.7913 7.5698V7.36508C14.7913 6.53416 14.0921 5.85979 13.258 5.85979H12.0435C10.6574 5.85979 9.52882 4.75191 9.52882 3.40317C9.52882 2.90944 9.9459 2.5 10.4488 2.5C10.9641 2.5 11.3689 2.90944 11.3689 3.40317C11.3689 3.76444 11.6755 4.05345 12.0435 4.05345H13.258C15.1103 4.0655 16.6191 5.5467 16.6314 7.35304Z" fill="#130F26"/>
<path fill-rule="evenodd" clip-rule="evenodd" d="M18.955 7.60337C19.3489 7.60877 19.7437 7.61419 20.1398 7.61824C24.3965 7.61824 27.5 10.6529 27.5 14.8436V20.2265C27.5 24.4172 24.3965 27.4519 20.1398 27.4519C18.4347 27.488 16.7296 27.5 15.0123 27.5C13.2949 27.5 11.5653 27.488 9.86016 27.4519C5.60353 27.4519 2.5 24.4172 2.5 20.2265V14.8436C2.5 10.6529 5.60353 7.61824 9.87242 7.61824C11.4794 7.59415 13.1232 7.57007 14.7915 7.57007C15.4048 7.57007 16.0182 7.57007 16.6315 7.58211C17.4048 7.58211 18.1781 7.59272 18.955 7.60337ZM13.5648 18.4322H12.2767V19.7087C12.2767 20.2024 11.8597 20.6119 11.3567 20.6119C10.8415 20.6119 10.4367 20.2024 10.4367 19.7087V18.4322H9.13641C8.63346 18.4322 8.21639 18.0348 8.21639 17.529C8.21639 17.0353 8.63346 16.6259 9.13641 16.6259H10.4367V15.3614C10.4367 14.8677 10.8415 14.4582 11.3567 14.4582C11.8597 14.4582 12.2767 14.8677 12.2767 15.3614V16.6259H13.5648C14.0677 16.6259 14.4848 17.0353 14.4848 17.529C14.4848 18.0348 14.0677 18.4322 13.5648 18.4322ZM18.7782 16.3971H18.9009C19.4038 16.3971 19.8209 15.9997 19.8209 15.4939C19.8209 15.0002 19.4038 14.5907 18.9009 14.5907H18.7782C18.263 14.5907 17.8582 15.0002 17.8582 15.4939C17.8582 15.9997 18.263 16.3971 18.7782 16.3971ZM20.8759 20.5396H20.9985C21.5015 20.5396 21.9185 20.1422 21.9185 19.6364C21.9185 19.1427 21.5015 18.7333 20.9985 18.7333H20.8759C20.3606 18.7333 19.9558 19.1427 19.9558 19.6364C19.9558 20.1422 20.3606 20.5396 20.8759 20.5396Z" fill="#130F26"/>
</svg>
