<svg width="40" height="33" viewBox="0 0 40 33" fill="none" xmlns="http://www.w3.org/2000/svg">
<g clip-path="url(#clip0_690_3453)">
<path d="M1.72598 0.367464H38.1512C38.3299 0.366234 38.507 0.399803 38.6726 0.466256C38.8382 0.53271 38.9888 0.630745 39.1161 0.754764C39.2433 0.878784 39.3446 1.02636 39.4141 1.18906C39.4836 1.35177 39.52 1.52641 39.5213 1.70303V30.9672C39.5204 31.3228 39.3771 31.6636 39.1227 31.9151C38.8683 32.1665 38.5235 32.3082 38.1638 32.309H1.72598C1.36672 32.3065 1.02287 32.1644 0.768832 31.9133C0.514789 31.6622 0.370975 31.3223 0.3685 30.9672V1.71237C0.370149 1.35672 0.513599 1.01605 0.76773 0.764277C1.02186 0.5125 1.36618 0.369919 1.72598 0.367464Z" fill="url(#paint0_radial_690_3453)"/>
<path d="M39.348 11.0923V29.977C39.348 30.6401 39.411 31.5336 38.9449 31.9446C38.5417 32.2964 37.6504 32.2372 37.0551 32.2372H2.30552C1.70071 32.2347 1.12152 31.9955 0.694741 31.5719C0.267959 31.1483 0.0283457 30.5748 0.0283508 29.977V11.0051L19.5559 31.5523L39.348 11.0923Z" fill="url(#paint1_linear_690_3453)"/>
<path d="M1.72598 0H38.1512C38.3787 0.00134733 38.6036 0.0474635 38.8129 0.135658C39.0222 0.223852 39.2116 0.352358 39.3701 0.513679C39.5312 0.670752 39.6592 0.857817 39.7468 1.06407C39.8344 1.27033 39.8798 1.49169 39.8803 1.71538V30.9608C39.8798 31.1845 39.8344 31.4059 39.7468 31.6122C39.6592 31.8184 39.5312 32.0055 39.3701 32.1625C39.2112 32.3218 39.0219 32.4484 38.8133 32.5349C38.6046 32.6215 38.3806 32.6663 38.1543 32.6669H1.72598C1.49968 32.6663 1.27573 32.6215 1.06707 32.5349C0.858398 32.4484 0.669145 32.3218 0.510236 32.1625C0.349115 32.0055 0.22107 31.8184 0.133494 31.6122C0.0459186 31.4059 0.000547196 31.1845 0 30.9608L0 1.71226C0.00177997 1.48792 0.0486373 1.26616 0.13785 1.05987C0.227064 0.853578 0.356855 0.666862 0.519685 0.510566C0.676953 0.351291 0.86444 0.224217 1.07143 0.136611C1.27841 0.0490039 1.50084 0.00258236 1.72598 0V0ZM0.762205 10.8028L19.6189 30.5655L39.1465 10.2238V1.71226C39.1468 1.45448 39.0437 1.20708 38.8598 1.02425C38.7693 0.932157 38.6612 0.858841 38.5416 0.808591C38.4221 0.758342 38.2937 0.732168 38.1638 0.731604H1.72598C1.46404 0.734804 1.21394 0.839954 1.02992 1.02425C0.843475 1.20614 0.737096 1.45335 0.733858 1.71226V10.8184L0.762205 10.8028ZM39.1433 11.3321L19.8772 31.3282L19.6094 31.6022L19.3417 31.3282L0.759055 11.8302V30.9577C0.762293 31.2167 0.868672 31.4639 1.05512 31.6458C1.23913 31.83 1.48924 31.9352 1.75118 31.9384H38.1512C38.2811 31.9378 38.4095 31.9117 38.5291 31.8614C38.6486 31.8112 38.7567 31.7378 38.8472 31.6458C39.0311 31.4629 39.1342 31.2155 39.1339 30.9577L39.1433 11.3321Z" fill="#FEFEFE"/>
<path d="M16.063 21.6617C15.9016 21.4299 15.7543 21.1887 15.622 20.9395H15.6031C15.4016 21.0422 15.1874 21.1449 15.0331 21.2259L14.948 21.2695C15.2471 21.4286 15.5643 21.5519 15.8929 21.6368L16.0598 21.6679L16.063 21.6617Z" fill="#ED3A3A"/>
<path d="M9.67245 17.1227C10.0811 17.3632 10.548 17.4902 11.0236 17.49C11.1289 17.4897 11.234 17.4834 11.3386 17.4713C11.3136 17.4002 11.2997 17.3256 11.2976 17.2503C11.3019 17.0962 11.3469 16.9459 11.4282 16.8143C11.5094 16.6827 11.624 16.5743 11.7606 16.5C11.94 16.4092 12.1387 16.3622 12.3402 16.363V16.335C12.347 16.2513 12.3709 16.1698 12.4104 16.0954C12.4499 16.0211 12.5042 15.9554 12.5701 15.9023C12.6865 15.7225 12.8606 15.5865 13.0646 15.5163C13.2767 15.4415 13.5008 15.4056 13.726 15.4104C14.0559 15.4164 14.3838 15.4624 14.7024 15.5474C14.674 15.5069 14.6457 15.4633 14.6205 15.4197C14.3225 14.9214 14.1547 14.3575 14.1323 13.7791C14.1078 13.5293 14.1761 13.2792 14.3244 13.0755C14.3585 13.0403 14.3852 12.9988 14.403 12.9534C14.4209 12.908 14.4295 12.8596 14.4284 12.8109C14.3524 12.4366 14.1622 12.0944 13.8835 11.8302C13.4495 11.3468 12.9867 10.8894 12.4976 10.4604C11.411 9.46418 10.0598 8.33097 9.06457 7.22267C7.90237 5.91512 6.76536 3.42455 6.27717 2.10767C5.96526 2.53316 5.80467 3.04877 5.82048 3.57399C5.82048 4.87531 6.60158 6.44436 7.45512 7.75191C8.0713 8.68347 8.74778 9.57467 9.48032 10.4199L9.54961 10.504C9.5506 10.5123 9.5506 10.5206 9.54961 10.5289C9.55157 10.5392 9.55157 10.5497 9.54961 10.56C9.5499 10.5793 9.5432 10.5981 9.53071 10.6129C9.52278 10.6217 9.51308 10.6287 9.50223 10.6336C9.49138 10.6384 9.47962 10.6409 9.46772 10.641C9.45431 10.6445 9.44019 10.6445 9.42678 10.641L9.40158 10.6192L9.31339 10.5351L8.95434 10.1833C8.63938 9.87201 8.11024 9.36455 7.36064 8.65474C6.88484 8.22948 6.52244 7.69484 6.30552 7.09814C6.21394 6.8281 6.15681 6.54782 6.13544 6.2638C5.93697 6.57804 5.82815 6.93947 5.82048 7.30984C5.83272 7.74244 5.96215 8.16389 6.19528 8.53021C6.45203 8.93774 6.7565 9.31392 7.10237 9.65097C7.81733 10.367 8.65512 11.0083 9.12126 11.5656L9.19056 11.6465L9.09292 11.6932C9.07427 11.6975 9.05488 11.6975 9.03623 11.6932C9.00698 11.6973 8.97729 11.6973 8.94804 11.6932L8.8441 11.6528C8.76536 11.6185 8.67087 11.5718 8.56379 11.5127C8.34646 11.3944 8.0756 11.2294 7.79213 11.0363C7.21069 10.6547 6.6814 10.2006 6.21733 9.68521C6.10881 9.55908 6.01675 9.41997 5.94331 9.27116C5.94024 9.32508 5.94024 9.37912 5.94331 9.43304C5.94331 10.1709 6.51024 10.9896 7.2315 11.6714C7.84162 12.2826 8.55871 12.7794 9.34804 13.1378L9.31654 13.2996C8.83966 13.2633 8.37069 13.1584 7.92441 12.9883C7.48531 12.8461 7.09272 12.5902 6.78741 12.2474C6.83414 12.5474 6.95413 12.8316 7.13701 13.0755C7.39125 13.4049 7.70525 13.6846 8.063 13.9005C8.79676 14.3244 9.57923 14.6599 10.3937 14.8998V15.0586C10.3446 15.065 10.2948 15.065 10.2457 15.0586C9.892 15.0287 9.54429 14.9501 9.2126 14.8251C8.82576 14.6959 8.44621 14.5463 8.0756 14.3768C7.96536 14.327 7.86772 14.2772 7.78898 14.2336C7.96742 14.7142 8.28104 15.1343 8.69292 15.4446C9.18898 15.8446 9.74884 16.1602 10.3496 16.3786C10.6513 16.4976 10.9703 16.568 11.2945 16.5872V16.7522H11.0898C10.3874 16.7314 9.69907 16.5525 9.07717 16.2292C9.09827 16.4159 9.16452 16.5948 9.27032 16.7509C9.37613 16.9069 9.51837 17.0355 9.68504 17.1258" fill="#ED3A3A"/>
<path d="M14.9543 19.6133L14.885 19.4638L14.863 19.414V19.3985C14.7181 19.0871 14.5921 18.7758 14.4913 18.5517C14.3055 18.1158 13.9402 17.8948 13.641 17.4838H13.3732C13.1925 17.4873 13.0131 17.4523 12.8472 17.3811L11.4709 17.434L11.4488 17.5399L11.474 17.5959C11.3049 17.7109 11.1085 17.7807 10.9039 17.7983C10.6869 17.8285 10.468 17.843 10.2488 17.8419H10.1732C10.7 18.2039 11.327 18.3963 11.9685 18.3929C12.2562 18.3948 12.5423 18.3506 12.8158 18.2621L12.885 18.4116C12.7658 18.4705 12.64 18.5155 12.5102 18.5454C12.3559 18.5859 12.1764 18.6233 11.9969 18.6544C11.6819 18.7104 11.3669 18.754 11.178 18.7789C11.3318 18.8897 11.5047 18.972 11.6882 19.0218C12.0014 19.1113 12.3259 19.1564 12.652 19.1556C12.8544 19.1574 13.0563 19.1355 13.2535 19.0903L13.3134 19.2428H13.2945C13.2011 19.2825 13.1025 19.3087 13.0016 19.3206C12.8756 19.3393 12.7339 19.3518 12.589 19.3611C12.4035 19.3646 12.2184 19.3791 12.0347 19.4047C12.3969 19.6766 12.8396 19.8232 13.2945 19.8219C13.5849 19.822 13.873 19.7703 14.1449 19.6693L14.2898 19.6164L14.2583 19.7658C14.2388 19.8457 14.1961 19.9182 14.1354 19.9744C14.0774 20.03 14.0116 20.0771 13.9402 20.1145C13.8447 20.164 13.7458 20.2067 13.6441 20.2421C13.8082 20.375 13.9934 20.4802 14.1921 20.5535C14.5016 20.6726 14.8301 20.7359 15.1622 20.7403C15.2678 20.7394 15.3731 20.73 15.4772 20.7122C15.2882 20.3355 15.1181 19.9806 14.9543 19.6133Z" fill="#ED3A3A"/>
<path d="M29.726 25.0209C28.4164 25.0615 27.1113 24.8501 25.8835 24.3982C24.5291 23.8503 23.6472 23.0378 22.6772 21.7022L21.9213 20.8118L22.0441 20.7091C22.1111 20.7982 22.1979 20.8709 22.2978 20.9217C22.3978 20.9724 22.5081 20.9998 22.6205 21.0017C22.9551 20.9692 23.2679 20.8228 23.5055 20.5877L22.2457 20.5098V20.3542C22.6936 20.3276 23.1372 20.2524 23.5685 20.13C23.7214 20.0832 23.8644 20.0094 23.9905 19.9121L21.9527 19.5759V19.4202C22.5106 19.4199 23.068 19.3877 23.622 19.3237C23.9825 19.2942 24.3362 19.2102 24.6709 19.0746C24.7498 19.039 24.8222 18.9906 24.885 18.9314L22.0787 18.8131V18.6544C22.7546 18.6608 23.4301 18.6223 24.1008 18.5392C24.6745 18.4828 25.2247 18.2847 25.7008 17.9632C25.0929 18.0006 24.2362 18.094 23.6346 18.094C23.5063 18.0952 23.378 18.089 23.2504 18.0753C23.1564 18.0684 23.0645 18.0441 22.9795 18.0037L23.0047 17.8574C23.4803 17.7671 24.2236 17.7017 24.9291 17.5087C25.5433 17.3761 26.0965 17.048 26.5039 16.5747C25.5248 16.8051 24.5317 16.9725 23.5307 17.076L23.4992 16.9234C24.2835 16.6775 25.2063 16.4409 26.0189 16.1202C26.6786 15.9086 27.2661 15.5207 27.7165 14.9995C26.7244 15.2765 24.6331 15.7311 23.8929 15.8525L23.8583 15.6999C25.4583 15.2672 27.0677 14.5823 27.9244 13.832C28.1093 13.6794 28.2697 13.4999 28.4 13.2996C27.2225 13.8473 26.0105 14.3194 24.7716 14.713C24.4818 14.812 24.1834 14.885 23.8803 14.931L23.8394 14.7815C24.6677 14.3768 25.5307 14.0655 26.3055 13.6732C27.025 13.357 27.6577 12.8757 28.1512 12.2692C28.4229 11.8938 28.595 11.4571 28.652 10.999C27.2094 11.9579 25.8583 13.0786 24.1575 13.6577L24.0819 13.5207C24.1323 13.4802 24.2488 13.4055 24.3685 13.3246C24.4882 13.2436 24.6079 13.1658 24.6488 13.1346C25.6255 12.5681 26.536 11.8967 27.3638 11.1329C27.8576 10.6544 28.2931 10.1205 28.6614 9.542C28.9195 9.16928 29.0886 8.74347 29.1559 8.29672C27.9111 9.51167 26.5875 10.6452 25.1937 11.6901C24.8134 11.9905 24.3884 12.231 23.9339 12.403L23.8614 12.2692C26.0661 10.3639 28.3118 8.82597 29.285 7.17908C29.6 6.66643 29.7687 6.07905 29.7732 5.47927V5.39521C29.6378 5.5571 29.4583 5.77191 29.2126 6.01785C28.8976 6.36965 28.4756 6.79615 28.0252 7.26314C27.1276 8.16597 26.0787 9.17153 25.2409 9.91248C24.837 10.2849 24.4007 10.6214 23.937 10.918L23.8362 10.7997C24.2425 10.3203 25.1496 9.4704 26.126 8.47417C27.1185 7.49748 28.0179 6.43241 28.8126 5.29248C29.263 4.60134 29.5464 3.9538 29.5464 3.42455C29.5472 3.31962 29.5345 3.21502 29.5087 3.11323C29.2661 3.47436 28.7401 4.19663 28.085 5.03097C27.2975 6.04735 26.4564 7.02209 25.5653 7.95116C25.1175 8.43817 24.6071 8.86519 24.0472 9.22134L23.937 9.11549C25.3291 7.62427 27.5024 5.25512 28.4976 3.42455C28.7929 2.95287 28.974 2.42016 29.0268 1.86795C29.0335 1.74484 29.013 1.62176 28.9668 1.50726C28.9205 1.39275 28.8497 1.28956 28.759 1.20483L28.7244 1.24531C28.6732 1.29799 28.6259 1.35416 28.5827 1.41342C28.4693 1.56285 28.3181 1.78389 28.1417 2.03606C27.7827 2.57465 27.3071 3.31248 26.7307 4.10012C25.5779 5.65672 24.0346 7.46861 22.2394 8.3154C21.1682 9.07148 20.1621 9.91388 19.2315 10.834C18.4598 11.6559 17.9937 12.4622 17.9937 13.3028V13.4896C18.023 13.6902 18.0694 13.8881 18.1323 14.0811C18.4183 14.2391 18.6332 14.4982 18.7339 14.8064C18.8608 15.1602 18.9237 15.5332 18.9197 15.9085C18.9217 16.1652 18.8932 16.4212 18.8346 16.6712C18.7932 16.8702 18.7071 17.0575 18.5827 17.2192V17.2379L18.6992 17.4869H18.5638C18.4229 17.4809 18.2828 17.4632 18.1449 17.434C17.8207 17.3612 17.5089 17.2428 17.2189 17.0822C17.4162 17.2551 17.634 17.4035 17.8677 17.5243C17.9958 17.5928 18.1333 17.6581 18.2803 17.7204L18.2394 17.8698C18.0509 17.8477 17.8637 17.8155 17.6787 17.7733C17.4772 17.7275 17.2792 17.6672 17.0866 17.5928C17.1821 17.697 17.2876 17.7919 17.4016 17.8761C17.5338 17.9725 17.6739 18.0579 17.8205 18.1313L17.7701 18.2777C17.5624 18.2383 17.3581 18.1832 17.159 18.1127C16.9879 18.0524 16.8224 17.9774 16.6646 17.8885C16.7433 17.9998 16.8319 18.1039 16.9291 18.1998C17.0047 18.2746 17.0835 18.3493 17.1685 18.424L17.1087 18.561C16.9575 18.5473 16.8097 18.5095 16.6709 18.4489C16.5515 18.3966 16.4376 18.333 16.3307 18.259L16.4945 18.5361L16.7685 19.003L16.674 19.1151C16.475 19.0434 16.284 18.9516 16.1039 18.8412C15.9952 18.7739 15.8901 18.7012 15.789 18.6232L15.8992 18.9906L16.0252 19.4296L15.8583 19.3486C15.7608 19.314 15.6669 19.2702 15.5779 19.2179C15.4314 19.1319 15.2969 19.0272 15.1779 18.9065V18.9906C15.1782 19.1494 15.125 19.3039 15.0268 19.4296L15.0803 19.5479C15.3874 20.2191 15.7399 20.8692 16.1354 21.4936L16.1638 21.4345L16.2457 21.5434C16.526 21.9201 16.7748 22.2968 17.0551 22.605C17.2209 22.8062 17.4175 22.9806 17.6378 23.1218C17.7371 23.1762 17.8429 23.218 17.9527 23.2463C18.0153 23.0953 18.068 22.9403 18.1102 22.7825L18.2646 22.8136C18.2395 22.9517 18.2016 23.0872 18.1512 23.2183C18.1411 23.2429 18.1295 23.2668 18.1165 23.2899L18.0913 23.4051L18.0031 23.5701V23.5919C17.6018 24.344 17.0686 25.0196 16.4283 25.5875H17.3228L17.2598 26.2101L17.9276 25.821V26.3129L18.2614 25.7712L18.4315 26.2288L18.7748 25.5875L18.9417 25.8988L19.1339 25.3322H19.285L19.3669 25.547L19.6567 24.8154H19.8079L19.852 25.024L20.1669 24.4013L20.315 24.4169C20.353 24.6023 20.4057 24.7844 20.4724 24.9617C20.5732 25.1921 20.7087 25.4661 20.8661 25.7525C21.1609 26.321 21.5259 26.8512 21.9527 27.3309C22.1175 27.5549 22.3615 27.7094 22.6362 27.7636C22.7001 27.7644 22.7627 27.7459 22.8157 27.7107L22.0094 25.5314L22.1512 25.4598C22.348 25.7967 22.5125 26.1511 22.6425 26.5183C22.7619 26.8811 22.9371 27.2234 23.1622 27.5332C23.2144 27.6049 23.2823 27.664 23.3608 27.706C23.4394 27.7481 23.5265 27.772 23.6157 27.7761C23.6814 27.7736 23.7462 27.761 23.8079 27.7387L22.9921 25.6684L23.137 25.5999C23.3228 25.933 23.4866 26.3191 23.6661 26.674C23.8049 26.9953 24.0036 27.2878 24.252 27.5363C24.3894 27.6619 24.5688 27.7328 24.7559 27.7356C24.8636 27.7346 24.9703 27.7146 25.0709 27.6764L23.811 25.7743L23.9339 25.6746C24.1602 25.9457 24.3705 26.2295 24.5638 26.5245C24.7998 26.8815 25.0861 27.2033 25.4142 27.4803C25.5906 27.6298 25.812 27.7174 26.0441 27.7294C26.1896 27.7315 26.3327 27.6927 26.4567 27.6173L24.6236 25.7494L24.7213 25.6248C25.1072 25.8758 25.4577 26.1763 25.7638 26.5183C26.0618 26.8509 26.4003 27.1458 26.7716 27.3962C27.0054 27.5401 27.2743 27.6186 27.5496 27.6235C27.7675 27.6177 27.9818 27.5679 28.1795 27.4772L25.7197 25.5283L25.8142 25.4007C26.2929 25.712 26.863 26.1261 27.4772 26.4623C28.0585 26.8159 28.72 27.0204 29.4016 27.0569C29.8406 27.0597 30.2705 26.9329 30.6362 26.6927L27.6472 25.8801C27.2913 25.7992 26.948 25.7058 26.6331 25.6062L26.6772 25.4536L27.685 25.7245C28.4145 25.8991 29.1613 25.9931 29.9118 26.0046C30.4764 26.0188 31.0386 25.9269 31.5685 25.7338C31.9869 25.5803 32.3415 25.2933 32.5764 24.9181C31.7228 24.9493 30.7464 25.0302 29.726 25.0302" fill="#ED3A3A"/>
<path d="M14.8472 24.2238V24.3078L14.822 24.5164L15.137 24.3483L15.2567 24.4448L15.1654 24.7561L15.4803 24.5538L15.5842 24.6503L15.4835 24.8371L15.7197 24.6659L15.8488 24.753L15.748 25.1017L16.2016 24.7561L16.3307 24.8558L16.0819 25.385C16.1909 25.3319 16.2961 25.2716 16.3968 25.2044C16.5732 25.0924 16.737 24.9678 16.8441 24.8931C17.248 24.4381 17.5978 23.9388 17.8866 23.405C17.5171 23.2611 17.19 23.0277 16.9354 22.7263C16.6728 22.4176 16.4268 22.0955 16.1984 21.7612L16.0189 22.1037H16.2425L16.2992 22.2531L16.0283 22.4586H16.1417L16.1953 22.6111L15.7858 22.8726L15.9591 22.9038V23.0626L15.5905 23.2058L15.7449 23.2213V23.3832L15.3701 23.4891L15.515 23.5077V23.6603L15.1276 23.7039L15.1905 23.7257L15.1654 23.8876H14.8409V24.037L14.4441 24.1148C14.5452 24.176 14.6597 24.2123 14.7779 24.2207L14.8472 24.2238Z" fill="#ED3A3A"/>
<path d="M14.6803 26.4622C14.6415 26.3534 14.5908 26.249 14.5291 26.1509C14.4252 25.9735 14.2961 25.8054 14.2142 25.6808L14.1732 25.6497L15.2315 25.027L15.389 24.7313L15.0205 24.9617L14.9575 24.915L15.0866 24.4854L14.7717 24.6504C14.4122 24.9605 13.9785 25.1748 13.5118 25.273L11.9685 24.9056C11.9023 24.8846 11.8333 24.8731 11.7638 24.8714C11.7247 24.8732 11.6867 24.885 11.6535 24.9056C11.6425 24.9133 11.6336 24.9236 11.6275 24.9356C11.6215 24.9475 11.6185 24.9608 11.6189 24.9741C11.6189 25.0395 11.7008 25.1454 11.8803 25.164L13.074 25.3664V25.4473L11.8142 25.3913H11.7165C11.6865 25.3874 11.6561 25.3893 11.6268 25.3971C11.5976 25.4048 11.5702 25.4181 11.5462 25.4364C11.5222 25.4546 11.5021 25.4773 11.487 25.5032C11.4719 25.5292 11.4621 25.5578 11.4583 25.5874C11.4583 25.6096 11.4634 25.6315 11.4732 25.6515C11.483 25.6714 11.4973 25.6889 11.515 25.7026C11.5703 25.743 11.6384 25.7629 11.7071 25.7587L13.452 25.6902V25.7711C13.137 25.8085 12.822 25.8334 12.5543 25.8614C12.3748 25.8685 12.1984 25.9097 12.0346 25.9828C11.989 25.9993 11.9473 26.0247 11.9118 26.0575C11.8949 26.0728 11.8848 26.0941 11.8835 26.1167C11.8875 26.1383 11.8968 26.1587 11.9105 26.176C11.9242 26.1933 11.9419 26.2072 11.9622 26.2163C12.0225 26.2509 12.0909 26.2691 12.1606 26.2692H12.1953C12.7998 26.2196 13.3968 26.1026 13.9748 25.9205C14.0839 25.9624 14.1767 26.0377 14.2394 26.1354C14.2888 26.2142 14.3279 26.299 14.3559 26.3875L14.6803 26.4622Z" fill="#ED3A3A"/>
<path d="M17.1244 26.1791L17.159 25.6965H16.715C16.3235 26.1051 15.8461 26.4239 15.3165 26.6305L13.7606 26.4095C13.7068 26.3978 13.6519 26.3916 13.5968 26.3908C13.5397 26.387 13.4827 26.4 13.4331 26.4281C13.4151 26.435 13.4001 26.4476 13.3903 26.464C13.3806 26.4804 13.3768 26.4996 13.3795 26.5184C13.3817 26.5411 13.389 26.563 13.401 26.5824C13.4131 26.6018 13.4294 26.6183 13.4488 26.6305C13.5106 26.6733 13.5844 26.6962 13.6598 26.6959L14.8661 26.7924V26.8733L13.6063 26.9262H13.5433C13.3575 26.9262 13.2724 27.0383 13.2693 27.1348C13.2692 27.156 13.2736 27.1769 13.2823 27.1962C13.291 27.2155 13.3037 27.2328 13.3197 27.2469C13.3688 27.2852 13.4305 27.3041 13.4929 27.2998H13.5433L15.2693 27.085V27.166C14.9543 27.2313 14.6394 27.2843 14.3811 27.3372C14.2029 27.3595 14.0308 27.4155 13.874 27.5022C13.8324 27.522 13.795 27.5495 13.7638 27.5831C13.7474 27.5988 13.7374 27.6198 13.7354 27.6423C13.738 27.6616 13.7458 27.6799 13.758 27.6952C13.7702 27.7106 13.7863 27.7224 13.8047 27.7295C13.8679 27.7614 13.9387 27.7754 14.0094 27.7699H14.0787C14.6756 27.6683 15.2588 27.5002 15.8173 27.2687C15.9221 27.3079 16.0164 27.3704 16.0929 27.4514C16.1693 27.5324 16.2259 27.6296 16.2583 27.7357C16.3047 27.9 16.3989 28.0472 16.5291 28.1591C16.5862 28.1006 16.6178 28.0224 16.6173 27.9412C16.5944 27.7532 16.5167 27.5758 16.3937 27.4306C16.2677 27.2563 16.1165 27.0913 16.0157 26.9667L15.9874 26.9325L17.1244 26.1791Z" fill="#ED3A3A"/>
<path d="M13.7165 15.5319C13.5024 15.5257 13.2888 15.5584 13.0866 15.6284C12.9092 15.6904 12.7575 15.8086 12.6551 15.9646C12.548 16.0516 12.4773 16.1747 12.4567 16.3102C12.5304 16.3903 12.629 16.444 12.737 16.4627H12.8346C12.885 16.4657 12.9355 16.4587 12.9831 16.4422C13.0307 16.4256 13.0745 16.3998 13.1118 16.3662C13.1528 16.3351 13.178 16.2759 13.2661 16.2448C13.3809 16.2072 13.5011 16.1882 13.6221 16.1887C13.6913 16.1848 13.7607 16.1848 13.8299 16.1887V16.2417C13.7617 16.2378 13.6934 16.2378 13.6252 16.2417C13.5088 16.2399 13.3929 16.2567 13.2819 16.2915H13.2567C13.2972 16.2905 13.3367 16.3047 13.367 16.3313C13.3974 16.3579 13.4165 16.3948 13.4205 16.4347C13.419 16.4642 13.4078 16.4925 13.3884 16.515C13.369 16.5375 13.3426 16.5531 13.3134 16.5592C13.2411 16.5822 13.1657 16.5938 13.0898 16.5935C12.9728 16.5941 12.857 16.5708 12.7496 16.525V16.5001C12.6448 16.4829 12.5479 16.4339 12.4724 16.36C12.5291 16.5032 12.6772 16.6713 12.7465 16.8332C12.7716 16.9065 12.7854 16.9831 12.7874 17.0604C12.7906 17.1206 12.8012 17.1802 12.8189 17.2379C12.9918 17.3305 13.1861 17.3766 13.3827 17.3718C13.4791 17.3794 13.576 17.3794 13.6724 17.3718H13.6945L13.7134 17.3967C13.9969 17.8014 14.3874 18.0193 14.5953 18.5081C14.6929 18.7322 14.8095 19.0031 14.9417 19.2988C15.0018 19.206 15.0325 19.0977 15.0299 18.9875C15.0319 18.9564 15.0319 18.9252 15.0299 18.8941C15.0169 18.8023 14.9926 18.7124 14.9575 18.6264L15.052 18.5766H15.0772C15.2311 18.7942 15.4283 18.9785 15.6567 19.1183L15.7701 19.1774L15.748 19.0467L15.5906 18.4458L15.6787 18.3898H15.7039C15.8577 18.522 16.022 18.6418 16.1953 18.7478C16.2968 18.8099 16.402 18.8661 16.5102 18.9159L16.3559 18.6544L15.9843 18.0318L16.063 17.9633L16.085 17.9446C16.2715 18.1172 16.484 18.26 16.715 18.368C16.7559 18.3867 16.7969 18.396 16.8378 18.4116L16.7937 18.368C16.6079 18.1908 16.4592 17.9792 16.3559 17.7454L16.4378 17.6831H16.4598C16.6785 17.8414 16.9193 17.9672 17.1748 18.0567L17.2378 18.0754C17.0318 17.9253 16.8538 17.7409 16.7118 17.5305L16.7811 17.4527V17.434C17.0502 17.5702 17.3346 17.6747 17.6284 17.7454C17.2535 17.5553 16.9297 17.28 16.6835 16.9421L16.7591 16.8674L16.778 16.8487C17.1723 17.1156 17.6118 17.3107 18.0756 17.4247C18.1557 17.4412 18.2367 17.4536 18.3181 17.4621L18.2646 17.3469L18.1354 17.2223C17.8496 17.1634 17.5752 17.0593 17.3228 16.9141C16.6064 16.4839 15.859 16.1062 15.0866 15.784C14.6457 15.6263 14.1821 15.539 13.7134 15.5256" fill="#F1FAFF"/>
<path d="M16.2142 25.7555H16.5732C16.2107 26.1047 15.7828 26.3807 15.3134 26.568L14.7779 26.4933C14.7384 26.3599 14.6812 26.2322 14.6079 26.1135C14.5102 25.9485 14.3968 25.8022 14.315 25.6745L15.2378 25.1422L15.3008 25.1951L15.6409 24.9523L15.5496 25.3165L15.6819 25.4006L16.063 25.1111L15.8047 25.6652L15.9717 25.6247C16.1044 25.5876 16.2315 25.5332 16.3496 25.4628L16.1732 25.631L16.2142 25.7555ZM13.0835 16.4688C13.0796 16.4883 13.0796 16.5084 13.0835 16.5279C13.0895 16.5409 13.0981 16.5525 13.1087 16.5622H13.0772C13.0012 16.5608 12.9258 16.5482 12.8535 16.5248C12.9338 16.5263 13.0131 16.507 13.0835 16.4688ZM13.137 16.4034H13.1559C13.1559 16.4034 13.1842 16.4034 13.1968 16.4408V16.4844C13.1973 16.4964 13.1952 16.5083 13.1909 16.5196C13.1866 16.5308 13.18 16.541 13.1716 16.5497H13.1528C13.1528 16.5497 13.1244 16.5497 13.1118 16.5124V16.4688C13.1114 16.4568 13.1134 16.4448 13.1177 16.4336C13.1221 16.4224 13.1286 16.4121 13.137 16.4034ZM13.2346 16.338C13.2685 16.3336 13.3027 16.3426 13.3298 16.363C13.357 16.3834 13.3748 16.4136 13.3795 16.447C13.3795 16.4844 13.3575 16.5186 13.2945 16.5404H13.2283C13.2423 16.519 13.2499 16.4942 13.2504 16.4688C13.2543 16.4493 13.2543 16.4292 13.2504 16.4096C13.2413 16.3879 13.2245 16.3702 13.2031 16.3598L13.2346 16.338ZM11.4079 17.3747V17.4152C11.3906 17.3586 11.3811 17.3 11.3795 17.2409C11.3852 17.1003 11.4272 16.9635 11.5017 16.8436C11.5761 16.7236 11.6805 16.6246 11.8047 16.556C11.9769 16.4712 12.1667 16.4275 12.3591 16.4283C12.5045 16.6133 12.6116 16.8249 12.674 17.051L11.5307 17.2658L11.4268 17.3561L11.4079 17.3747ZM11.5528 17.3747L11.5717 17.3561L12.6646 17.1537V17.2066C12.6855 17.2552 12.7154 17.2996 12.7528 17.3374L11.5528 17.3747ZM17.3228 16.9233C17.5912 17.0543 17.8796 17.1406 18.1764 17.1786L18.3748 17.2035L18.4283 17.3187C18.3469 17.3103 18.266 17.2978 18.1858 17.2813C17.722 17.1674 17.2825 16.9724 16.8882 16.7054L16.8693 16.7241L16.7937 16.7988C17.0398 17.1368 17.3637 17.4121 17.7386 17.602C17.4389 17.545 17.1471 17.453 16.8693 17.328V17.3467L16.8 17.4245C16.942 17.6349 17.12 17.8193 17.326 17.9694L17.263 17.9507C17.0077 17.8622 16.7669 17.7374 16.548 17.5802H16.526L16.4441 17.6425C16.5473 17.8764 16.6961 18.088 16.8819 18.2651L16.9228 18.3025L16.8 18.2589C16.569 18.151 16.3565 18.0082 16.1701 17.8355L16.148 17.8542L16.0661 17.9227L16.4378 18.5453L16.5921 18.8068C16.4839 18.757 16.3787 18.7008 16.2772 18.6387C16.092 18.5443 15.915 18.435 15.748 18.3118H15.7228L15.5874 18.4239L15.7449 19.0465L15.7764 19.1555L15.663 19.0963C15.4346 18.9565 15.2374 18.7722 15.0835 18.5546H15.0551L14.9606 18.6045C14.9955 18.6905 15.0198 18.7804 15.0331 18.8722C15.035 18.9033 15.035 18.9345 15.0331 18.9656C15.0356 19.0757 15.0049 19.1841 14.9449 19.2769C14.8126 18.9656 14.6929 18.7103 14.5984 18.4862C14.3905 18.0036 14 17.7826 13.7165 17.3747H13.663C13.5622 17.3747 13.4677 17.3747 13.3732 17.3747C13.1767 17.3796 12.9823 17.3334 12.8094 17.2409C12.7915 17.1832 12.7809 17.1236 12.7779 17.0634C12.7759 16.9861 12.7621 16.9095 12.737 16.8362C12.6677 16.6649 12.5197 16.5062 12.463 16.3629C12.5376 16.4363 12.6333 16.4852 12.737 16.503V16.5248C12.8464 16.5762 12.9656 16.6038 13.0866 16.6058C13.1625 16.606 13.238 16.5945 13.3102 16.5715C13.3395 16.5654 13.3659 16.5498 13.3852 16.5273C13.4046 16.5048 13.4159 16.4765 13.4173 16.447C13.4134 16.4071 13.3943 16.3702 13.3639 16.3436C13.3335 16.317 13.2941 16.3028 13.2535 16.3038H13.2787C13.3875 16.2619 13.5023 16.2377 13.6189 16.2322C13.6871 16.2283 13.7554 16.2283 13.8236 16.2322V16.1979C13.7544 16.1941 13.685 16.1941 13.6157 16.1979C13.495 16.1964 13.3748 16.2143 13.2598 16.2509C13.1685 16.282 13.1433 16.3412 13.1055 16.3723C13.0682 16.4058 13.0244 16.4317 12.9768 16.4483C12.9292 16.4648 12.8787 16.4718 12.8283 16.4688H12.7307C12.6227 16.4501 12.5241 16.3964 12.4504 16.3162C12.471 16.1808 12.5417 16.0577 12.6488 15.9707C12.7501 15.8032 12.9071 15.6755 13.0929 15.6095C13.2951 15.5396 13.5087 15.5068 13.7228 15.513C14.1916 15.5265 14.6551 15.6137 15.0961 15.7714C15.8577 16.0961 16.5945 16.4748 17.3008 16.9046L17.3228 16.9233ZM11.0866 16.7895H11.2913V16.6245C10.9671 16.6053 10.6481 16.5349 10.3465 16.4159C9.74571 16.1974 9.18585 15.8818 8.68976 15.4819C8.27801 15.1715 7.96442 14.7513 7.78582 14.2709L8.07244 14.4141C8.44311 14.5834 8.82265 14.733 9.20945 14.8624C9.54118 14.9872 9.88887 15.0658 10.2425 15.0959C10.2917 15.1022 10.3414 15.1022 10.3905 15.0959V14.9371C9.57614 14.69 8.7947 14.3472 8.06299 13.916C7.70381 13.6956 7.3897 13.4104 7.137 13.0754C6.95413 12.8315 6.83413 12.5473 6.7874 12.2473C7.09261 12.5903 7.48523 12.8461 7.92441 12.9882C8.3707 13.1583 8.83966 13.2631 9.31653 13.2996L9.34803 13.1377C8.55295 12.794 7.82736 12.3109 7.2063 11.7118C6.48504 11.0331 5.91496 10.2112 5.91811 9.47342C5.9151 9.4195 5.9151 9.36545 5.91811 9.31153C5.99605 9.44863 6.09015 9.57612 6.19842 9.69134C6.66259 10.2066 7.19187 10.6607 7.77323 11.0425C8.05984 11.2355 8.3307 11.4005 8.54488 11.5188C8.65196 11.5779 8.74645 11.6246 8.82519 11.6589L8.92913 11.6994C8.95838 11.7035 8.98807 11.7035 9.01732 11.6994C9.03597 11.7036 9.05536 11.7036 9.07401 11.6994L9.17165 11.6527L9.13385 11.5748C8.65826 11.0051 7.82992 10.3607 7.12441 9.64153C6.77794 9.30157 6.47346 8.92223 6.21732 8.51144C5.98353 8.15056 5.85093 7.73478 5.83307 7.30662C5.84089 6.93628 5.94971 6.57489 6.14803 6.26059C6.16557 6.53438 6.21632 6.80509 6.29921 7.06691C6.51625 7.66355 6.87863 8.19816 7.35433 8.62351C8.10393 9.33332 8.61417 9.83144 8.94803 10.1521L9.30708 10.5039L9.39527 10.5879L9.42047 10.6097C9.4339 10.6132 9.44799 10.6132 9.46141 10.6097C9.47331 10.6097 9.48507 10.6072 9.49592 10.6023C9.50677 10.5975 9.51647 10.5905 9.52441 10.5817C9.53689 10.5669 9.54359 10.5481 9.5433 10.5288C9.54519 10.5185 9.54519 10.508 9.5433 10.4977C9.54419 10.4894 9.54419 10.481 9.5433 10.4728L9.47401 10.3887C8.74152 9.5434 8.06504 8.6522 7.44882 7.72068C6.60157 6.44427 5.82047 4.87521 5.82047 3.57389C5.80533 3.04828 5.96706 2.53256 6.28031 2.10757C6.76535 3.42446 7.90236 5.91502 9.06456 7.21634C10.0598 8.32464 11.411 9.46096 12.5102 10.4572C12.9993 10.8862 13.462 11.3436 13.8961 11.827C14.178 12.0938 14.3686 12.441 14.4409 12.8201C14.4421 12.8688 14.4335 12.9172 14.4156 12.9627C14.3978 13.0081 14.3711 13.0495 14.337 13.0847C14.1801 13.2862 14.1038 13.5378 14.1228 13.7914C14.1453 14.3699 14.313 14.9337 14.611 15.4321C14.6362 15.4757 14.6646 15.5162 14.6929 15.5597C14.3744 15.4747 14.0464 15.4287 13.7165 15.4228C13.4914 15.4181 13.2673 15.4539 13.0551 15.5286C12.8588 15.5986 12.6908 15.7297 12.5764 15.9022C12.5105 15.9553 12.4562 16.021 12.4167 16.0953C12.3771 16.1697 12.3533 16.2512 12.3465 16.3349V16.3629C12.1451 16.3629 11.9465 16.4098 11.7669 16.4999C11.6321 16.5732 11.5186 16.6795 11.4375 16.8088C11.3564 16.938 11.3104 17.0858 11.3039 17.2378C11.306 17.3131 11.3198 17.3876 11.3449 17.4588C11.2403 17.4709 11.1352 17.4772 11.0299 17.4775C10.5554 17.4814 10.0887 17.3588 9.67874 17.1226C9.51209 17.0339 9.36936 16.9071 9.26251 16.7528C9.15565 16.5984 9.08777 16.4209 9.06456 16.2353C9.68493 16.565 10.3733 16.7503 11.0772 16.777L11.0866 16.7895ZM14.1921 20.5471C13.9933 20.4739 13.8081 20.3687 13.6441 20.2358C13.7458 20.2003 13.8447 20.1577 13.9402 20.1081C14.0117 20.0708 14.0774 20.0237 14.1354 19.968C14.1961 19.9119 14.2388 19.8394 14.2583 19.7595L14.2898 19.61L14.1449 19.6629C13.8699 19.7698 13.5774 19.8257 13.2819 19.8279C12.827 19.8293 12.3843 19.6827 12.022 19.4108C12.1732 19.3921 12.3779 19.3828 12.5764 19.3672C12.7147 19.3639 12.8527 19.3504 12.989 19.3267C13.0899 19.3147 13.1885 19.2885 13.2819 19.2489H13.3008L13.2283 19.1026C13.0311 19.1477 12.8292 19.1696 12.6268 19.1679C12.3076 19.1711 11.9896 19.1303 11.6819 19.0465C11.4982 18.992 11.3263 18.9044 11.1748 18.7881C11.3638 18.7663 11.6787 18.7228 11.9937 18.6636C12.1732 18.6325 12.3528 18.5951 12.5071 18.5546C12.6357 18.5255 12.7604 18.4816 12.8787 18.4239L12.8126 18.2745C12.5392 18.3629 12.2531 18.4071 11.9654 18.4052C11.3206 18.4072 10.6912 18.2114 10.1638 17.8448H10.2299C10.4522 17.8464 10.6743 17.8319 10.8945 17.8012C11.099 17.7836 11.2954 17.7139 11.4646 17.5989L11.4394 17.5429L11.4614 17.437L12.8378 17.3965C13.0092 17.4667 13.1942 17.4986 13.3795 17.4899H13.6472C13.9622 17.9009 14.3118 18.1126 14.4976 18.5578C14.5984 18.7975 14.7244 19.087 14.8693 19.4046V19.4201L14.8913 19.4699L14.9606 19.6194C15.1213 19.968 15.3071 20.3385 15.5087 20.7059C15.4047 20.7248 15.2994 20.7352 15.1937 20.737C14.8521 20.7359 14.5136 20.6726 14.1953 20.5502L14.1921 20.5471ZM14.9543 21.2725L15.0394 21.2289C15.1937 21.1511 15.4079 21.0483 15.6094 20.9425H15.6283C15.7669 21.1884 15.915 21.4312 16.0693 21.6647L15.9024 21.6336C15.5732 21.553 15.2549 21.4338 14.9543 21.2787V21.2725ZM14.8252 24.0214V23.872H15.1779L15.2031 23.7101L15.1402 23.6883L15.5433 23.6603V23.4953L15.3984 23.4766L15.7732 23.349V23.1871L15.6189 23.1715L15.9842 23.0377V22.8789L15.811 22.8478L16.2205 22.5862L16.1669 22.4337H16.0535L16.3244 22.2282L16.2677 22.0788H16.0441L16.2236 21.727C16.4535 22.0663 16.6929 22.415 16.9449 22.6952C17.1939 23.0071 17.519 23.2514 17.8898 23.405C17.6035 23.9362 17.2569 24.4333 16.8567 24.8869C16.7135 24.9988 16.5642 25.1027 16.4094 25.1982C16.3087 25.2653 16.2035 25.3257 16.0945 25.3788L16.3433 24.8495L16.2047 24.7561L15.748 25.1111L15.8362 24.7624L15.7071 24.6752L15.4709 24.8464L15.5717 24.6503L15.452 24.5413L15.137 24.7437L15.2283 24.4324L15.115 24.339L14.8 24.5071L14.8252 24.2985V24.2145H14.7402C14.6219 24.2062 14.5073 24.1699 14.4063 24.1086L14.8252 24.0214ZM13.9842 25.9516C13.4063 26.1337 12.8093 26.2507 12.2047 26.3003H12.1701C12.1004 26.3002 12.0319 26.2819 11.9716 26.2474C11.9514 26.2382 11.9337 26.2244 11.92 26.2071C11.9063 26.1897 11.897 26.1694 11.8929 26.1478C11.8942 26.1251 11.9044 26.1039 11.9213 26.0886C11.9567 26.0557 11.9985 26.0303 12.0441 26.0139C12.2018 25.9421 12.3716 25.8999 12.5449 25.8894C12.8 25.8582 13.115 25.8364 13.4425 25.7991V25.7181L11.6976 25.7866C11.6289 25.7908 11.5609 25.771 11.5055 25.7306C11.4878 25.7169 11.4736 25.6994 11.4637 25.6794C11.4539 25.6595 11.4488 25.6376 11.4488 25.6154C11.4552 25.5556 11.4853 25.5007 11.5325 25.4627C11.5797 25.4248 11.6402 25.4069 11.7008 25.413H11.7953L13.0551 25.4691V25.3881L11.8614 25.1858C11.685 25.164 11.6 25.0612 11.6 24.9959C11.5996 24.9825 11.6026 24.9693 11.6086 24.9573C11.6147 24.9454 11.6236 24.9351 11.6346 24.9274C11.675 24.9021 11.7224 24.8902 11.7701 24.8931C11.8396 24.8949 11.9086 24.9064 11.9748 24.9274L13.5024 25.2823C13.969 25.184 14.4026 24.9697 14.7622 24.6596L15.0772 24.4946L14.948 24.9243L15.011 24.971L15.3764 24.7312L15.2189 25.027L14.1606 25.6496L14.1858 25.687C14.2709 25.8146 14.3968 25.9828 14.5008 26.1571C14.5625 26.2551 14.6132 26.3595 14.652 26.4684L14.337 26.4217C14.3091 26.3331 14.27 26.2484 14.2205 26.1695C14.1647 26.0774 14.0825 26.0037 13.9842 25.9578V25.9516ZM16.0283 26.9136L16.0567 26.9478C16.1575 27.0724 16.3087 27.2374 16.4346 27.4117C16.5575 27.557 16.6352 27.7343 16.6583 27.9223C16.6588 28.0035 16.6271 28.0817 16.5701 28.1402C16.4383 28.0258 16.3439 27.8751 16.2992 27.7075C16.2671 27.6013 16.2106 27.5039 16.1341 27.4229C16.0576 27.3419 15.9632 27.2795 15.8583 27.2405C15.2909 27.4761 14.6981 27.6464 14.0913 27.7479H14.0094C13.9447 27.7494 13.8808 27.7344 13.8236 27.7044C13.7764 27.6763 13.7512 27.6421 13.7543 27.6172C13.7562 27.5947 13.7663 27.5737 13.7827 27.558C13.8139 27.5244 13.8513 27.4969 13.8929 27.4771C14.0487 27.3909 14.2198 27.3349 14.3968 27.3121C14.6488 27.2592 14.9606 27.2094 15.285 27.1409V27.0848L13.5433 27.2965H13.5024C13.44 27.3007 13.3782 27.2819 13.3291 27.2436C13.3132 27.2295 13.3005 27.2122 13.2918 27.1929C13.2831 27.1736 13.2786 27.1527 13.2787 27.1315C13.2787 27.035 13.3638 26.9229 13.5528 26.9229H13.6094L14.8693 26.87V26.7735L13.663 26.677C13.5875 26.6773 13.5138 26.6544 13.452 26.6116C13.43 26.6015 13.4108 26.5864 13.396 26.5674C13.3812 26.5484 13.3712 26.5262 13.3669 26.5027C13.367 26.4883 13.3708 26.4741 13.3779 26.4616C13.3851 26.449 13.3954 26.4385 13.4079 26.4311C13.4575 26.4029 13.5145 26.3899 13.5717 26.3937C13.6267 26.3944 13.6816 26.4006 13.7354 26.4124L15.2913 26.6334C15.821 26.4269 16.2983 26.1081 16.6898 25.6995H17.1339L17.0866 26.182L16.0283 26.9136ZM31.5717 25.715C31.0417 25.9081 30.4796 26 29.915 25.9859C29.1645 25.9743 28.4176 25.8804 27.6882 25.7057L26.6803 25.4348L26.6362 25.5874C26.9512 25.687 27.2945 25.7773 27.6504 25.8613L30.6488 26.6677C30.2831 26.9079 29.8532 27.0347 29.4142 27.0319C28.7326 26.9954 28.0711 26.7909 27.4898 26.4373C26.8598 26.0979 26.3024 25.6839 25.8268 25.3757L25.7323 25.5033L28.2079 27.474C28.0102 27.5647 27.7958 27.6145 27.5779 27.6203C27.3029 27.6165 27.034 27.539 26.8 27.3962C26.413 27.1477 26.0595 26.8517 25.748 26.5151C25.4371 26.172 25.0812 25.8715 24.6898 25.6216L24.5921 25.7462L26.4252 27.6141C26.3085 27.685 26.1747 27.7237 26.0378 27.7262C25.8058 27.7142 25.5843 27.6266 25.4079 27.4771C25.0829 27.1985 24.7998 26.8757 24.5669 26.5182C24.3736 26.2232 24.1633 25.9394 23.937 25.6683L23.8142 25.7679L25.074 27.6701C24.9734 27.7083 24.8668 27.7283 24.7591 27.7293C24.572 27.7265 24.3925 27.6556 24.2551 27.53C24.0011 27.2829 23.7969 26.9902 23.6535 26.6677C23.474 26.3128 23.3071 25.9267 23.1244 25.5936L22.9795 25.6621L23.811 27.7324C23.7493 27.7547 23.6845 27.7673 23.6189 27.7697C23.5297 27.7657 23.4425 27.7418 23.364 27.6997C23.2854 27.6576 23.2175 27.5986 23.1654 27.5269C22.9463 27.218 22.7764 26.8779 22.6614 26.5182C22.5331 26.1414 22.3686 25.7775 22.1701 25.4317L22.0283 25.5033L22.8346 27.6826C22.7816 27.7178 22.719 27.7363 22.6551 27.7355C22.3816 27.6859 22.1367 27.5371 21.9685 27.3183C21.5417 26.8386 21.1767 26.3084 20.8819 25.7399C20.7276 25.4535 20.5921 25.1795 20.4882 24.9492C20.4086 24.7801 20.3423 24.6052 20.2898 24.4262L20.1417 24.4106L19.8268 25.0332L19.7827 24.8246H19.6315L19.3638 25.5282L19.2819 25.3134H19.1307L18.9291 25.88L18.7622 25.5687L18.4189 26.21L18.2677 25.7804L17.9339 26.3221V25.8395L17.2441 26.2162L17.3071 25.5656L16.4063 25.5936C17.0466 25.0258 17.5798 24.3501 17.9811 23.598V23.5669L18.1008 23.405L18.1449 23.3179C18.1579 23.2947 18.1695 23.2708 18.1795 23.2462C18.2299 23.1151 18.2679 22.9796 18.2929 22.8415L18.1386 22.8104C18.0974 22.9597 18.0469 23.1063 17.9874 23.2494C17.8776 23.221 17.7717 23.1792 17.6724 23.1248C17.4486 22.9884 17.2478 22.8183 17.0772 22.6205C16.8 22.3092 16.5512 21.9356 16.2677 21.5589L16.1858 21.4499L16.1575 21.5091C15.7673 20.8842 15.4201 20.2342 15.1181 19.5633L15.0646 19.445C15.1617 19.3135 15.2106 19.1532 15.2031 18.9905C15.2046 18.9615 15.2046 18.9324 15.2031 18.9033C15.3231 19.0242 15.4586 19.1289 15.6063 19.2146C15.6953 19.267 15.7891 19.3108 15.8866 19.3454L16.0472 19.4232L15.8992 18.9905L15.7953 18.6262C15.8964 18.7042 16.0015 18.777 16.1102 18.8442C16.2893 18.9544 16.4792 19.0462 16.6772 19.1181L16.7717 19.0061L16.4976 18.5391L16.3339 18.262C16.4408 18.336 16.5547 18.3996 16.674 18.4519C16.8128 18.5125 16.9607 18.5504 17.1118 18.564L17.1717 18.427C17.0866 18.3523 17.0047 18.2776 16.9323 18.2029C16.835 18.107 16.7465 18.0028 16.6677 17.8915C16.825 17.976 16.9894 18.0468 17.1591 18.1032C17.3491 18.1692 17.5439 18.2212 17.7417 18.2589L17.7921 18.1126C17.6456 18.0391 17.5054 17.9537 17.3732 17.8573C17.2592 17.7731 17.1538 17.6782 17.0583 17.574C17.2509 17.6484 17.4488 17.7088 17.6504 17.7545C17.8354 17.7967 18.0225 17.8289 18.211 17.8511L18.252 17.7016C18.105 17.6394 17.9675 17.574 17.8394 17.5055C17.6057 17.3848 17.3878 17.2364 17.1905 17.0634C17.4795 17.2305 17.7914 17.3553 18.1165 17.4339C18.2572 17.4678 18.4005 17.4897 18.5449 17.4993H18.674L18.5575 17.2502V17.2315C18.684 17.0683 18.7712 16.8788 18.8126 16.6774C18.8718 16.4243 18.9004 16.1651 18.8976 15.9053C18.904 15.5293 18.8432 15.1552 18.7181 14.8001C18.6218 14.49 18.4102 14.2275 18.126 14.0654C18.0631 13.8724 18.0167 13.6745 17.9874 13.4739C17.9874 13.4116 17.9874 13.3494 17.9874 13.2871C17.9874 12.4465 18.4535 11.6371 19.2252 10.8183C20.1559 9.89827 21.1619 9.05587 22.2331 8.29974C24.0346 7.47163 25.578 5.65974 26.7307 4.10314C27.3071 3.31238 27.7827 2.57766 28.1417 2.03908C28.2744 1.822 28.4217 1.61398 28.5827 1.41644C28.6257 1.35611 28.6731 1.29889 28.7244 1.24521L28.7591 1.21719C28.848 1.30052 28.9179 1.40169 28.9641 1.51391C29.0103 1.62612 29.0316 1.7468 29.0268 1.86785C28.9739 2.42005 28.7928 2.95273 28.4976 3.42446C27.5024 5.23946 25.3291 7.60861 23.9622 9.12474L24.0598 9.24615C24.6198 8.89003 25.1301 8.46301 25.578 7.97597C26.469 7.04689 27.3101 6.07215 28.0976 5.05578C28.7528 4.22455 29.2756 3.49917 29.5213 3.13804C29.5471 3.23983 29.5598 3.34443 29.5591 3.44936C29.5591 3.96304 29.2756 4.61059 28.8252 5.31729C28.0258 6.45339 27.1223 7.51428 26.126 8.48653C25.1496 9.48276 24.2362 10.3327 23.8362 10.8121L23.937 10.9304C24.4013 10.6288 24.8377 10.2871 25.2409 9.90927C26.0819 9.16832 27.1307 8.16276 28.0252 7.25993C28.4724 6.80851 28.885 6.38512 29.2126 6.01464C29.4457 5.76247 29.6378 5.54766 29.7732 5.392V5.47606C29.7617 6.07686 29.5853 6.66328 29.263 7.17276C28.2898 8.79163 26.0346 10.3295 23.8362 12.2348L23.9087 12.3687C24.3633 12.1966 24.7882 11.9562 25.1685 11.6558C26.5604 10.6198 27.8829 9.49564 29.1276 8.2904C29.0603 8.73715 28.8912 9.16295 28.6331 9.53568C28.2657 10.114 27.8313 10.6479 27.3386 11.1265C26.5129 11.8911 25.6045 12.5635 24.6299 13.1314C24.589 13.1626 24.4661 13.2435 24.3496 13.3213C24.2331 13.3992 24.1134 13.477 24.063 13.5175L24.1386 13.6545C25.8268 13.0754 27.1937 11.9546 28.6331 10.9958C28.5762 11.4539 28.404 11.8906 28.1323 12.266C27.6409 12.8727 27.0104 13.3551 26.2929 13.6731C25.5181 14.0654 24.6551 14.3767 23.8299 14.7939L23.8709 14.9433C24.174 14.8973 24.4723 14.8244 24.7622 14.7254C26.0011 14.3317 27.213 13.8596 28.3905 13.312C28.2602 13.5122 28.0999 13.6917 27.915 13.8444C27.0583 14.5853 25.4488 15.2702 23.8488 15.7123L23.8835 15.8648C24.6236 15.7434 26.7181 15.292 27.7071 15.0118C27.261 15.5307 26.6792 15.9184 26.0252 16.1326C25.2189 16.4439 24.2961 16.6898 23.5055 16.9358L23.537 17.0883C24.538 16.9849 25.5311 16.8174 26.5102 16.5871C26.1028 17.0604 25.5496 17.3885 24.9354 17.5211C24.2268 17.7141 23.4866 17.7826 23.011 17.8697L22.9858 18.0161C23.0708 18.0565 23.1627 18.0808 23.2567 18.0877C23.3843 18.1014 23.5126 18.1076 23.6409 18.1063C24.2394 18.1063 25.0992 18.0129 25.7071 17.9756C25.2243 18.2956 24.6673 18.4895 24.0882 18.5391C23.4166 18.6234 22.74 18.6629 22.063 18.6574V18.8162L24.8693 18.9345C24.8064 18.9936 24.7341 19.042 24.6551 19.0777C24.3205 19.2132 23.9667 19.2972 23.6063 19.3267C23.1496 19.3828 22.589 19.4108 21.9465 19.4232V19.5789L23.9811 19.9245C23.8549 20.0217 23.7119 20.0955 23.5591 20.1424C23.1277 20.2647 22.6841 20.3399 22.2362 20.3665V20.5222L23.4961 20.6C23.2584 20.8352 22.9456 20.9815 22.611 21.0141C22.4998 21.0088 22.3912 20.9786 22.2935 20.9258C22.1959 20.8729 22.1116 20.7988 22.0472 20.709L21.9244 20.8117L22.6772 21.7021C23.6504 23.0439 24.5291 23.8502 25.8866 24.3981C27.1145 24.85 28.4196 25.0614 29.7291 25.0208C30.7496 25.0208 31.726 24.9398 32.5795 24.9087C32.3473 25.2824 31.9961 25.5693 31.5811 25.7244L31.5717 25.715ZM32.715 24.7375C31.8236 24.7655 30.7968 24.8558 29.726 24.8558C28.4372 24.8921 27.1536 24.6806 25.9465 24.2331C24.6205 23.6977 23.7732 22.9225 22.7968 21.59L22.3937 21.123C22.4654 21.1434 22.5396 21.1538 22.6142 21.1542C23.0515 21.1068 23.455 20.8991 23.7449 20.572L23.874 20.4475L23.0803 20.3977C23.2633 20.376 23.4444 20.3406 23.622 20.2918C23.8474 20.2183 24.0516 20.0923 24.2173 19.9245L24.3307 19.8155L22.7559 19.5602C23.1952 19.5431 23.6329 19.4974 24.0661 19.4232C24.2952 19.3859 24.5185 19.32 24.7307 19.2271C24.885 19.1665 25.0147 19.057 25.0992 18.9158L25.1528 18.8068L23.8425 18.729L24.1228 18.6916C24.8441 18.5827 25.537 18.3803 25.9748 17.9227L25.9118 17.795C25.2819 17.8168 24.2929 17.9382 23.6315 17.9382H23.515C24.0053 17.8754 24.4912 17.7829 24.9701 17.6612C25.6945 17.4619 26.4 17.135 26.7622 16.503L26.8535 16.3443L26.674 16.3879C26.0441 16.5435 25.1654 16.6992 24.422 16.8268C24.9732 16.6649 25.5496 16.4906 26.0787 16.2789C26.8976 15.9676 27.6126 15.5379 27.9685 14.9153L27.874 14.8032C27.3386 14.9682 26.211 15.2329 25.2504 15.4259C25.8251 15.2176 26.384 14.969 26.9228 14.6818C27.3178 14.4791 27.6895 14.2349 28.0315 13.9533C28.3039 13.7397 28.52 13.4641 28.6614 13.1501L28.548 13.0536C27.736 13.452 26.9022 13.8054 26.0504 14.1121C25.5779 14.2864 25.1055 14.4452 24.7307 14.5666L24.6142 14.6009C25.4652 14.2519 26.2912 13.8463 27.0866 13.3867C27.5401 13.1163 27.9368 12.7622 28.2551 12.3438C28.5727 11.9014 28.7612 11.3812 28.8 10.8401V10.6782L28.6614 10.7685C27.3512 11.6278 26.1417 12.6364 24.7118 13.2591C25.6932 12.6889 26.6079 12.0134 27.4394 11.2448C27.9407 10.7567 28.3825 10.2124 28.7559 9.62285C29.0505 9.2135 29.2348 8.73672 29.2913 8.23747C29.295 8.18981 29.295 8.14193 29.2913 8.09427L29.2661 7.93238L29.1528 8.0538C28.8661 8.36512 27.8268 9.33955 26.715 10.2766C26.1606 10.7467 25.5874 11.2106 25.0835 11.5655C24.8522 11.7331 24.6126 11.8889 24.3654 12.0325C25.6882 10.9148 27.0047 9.91549 28.0252 8.91927C28.5551 8.42776 29.0178 7.86993 29.4016 7.25993C29.7335 6.72555 29.9131 6.1124 29.9213 5.4854C29.9214 5.38143 29.9161 5.27752 29.9055 5.17408L29.748 5.13361C29.4286 5.53404 29.088 5.9175 28.7276 6.28238C27.9748 7.07313 26.948 8.08804 26.0126 8.96285C25.5433 9.3987 25.0992 9.8003 24.7213 10.1179L24.5071 10.2953C24.7339 10.0649 24.9984 9.80342 25.2882 9.517C26.2957 8.54678 27.2513 7.5253 28.1512 6.45672C28.5667 5.95881 28.9367 5.4254 29.2567 4.86276C29.5188 4.43185 29.6722 3.94495 29.7039 3.44314C29.7063 3.2682 29.6731 3.09459 29.6063 2.93257L29.5559 2.80181L29.474 2.93257C29.3638 3.11314 29.0646 3.53653 28.6551 4.08134C28.0315 4.88766 27.1811 5.9804 26.3181 6.95483C25.7726 7.58636 25.1787 8.17545 24.5417 8.71691C25.3921 7.78295 26.4315 6.60927 27.3102 5.46361C27.8013 4.83924 28.2446 4.17948 28.6362 3.48983C28.9433 2.99833 29.1309 2.44312 29.1842 1.86785C29.1908 1.7239 29.1661 1.58023 29.1118 1.44651C29.0574 1.3128 28.9748 1.19214 28.8693 1.09266C28.8611 1.07936 28.8504 1.06773 28.8378 1.05842C28.8176 1.04404 28.7934 1.0364 28.7685 1.03663C28.7381 1.03813 28.7087 1.04782 28.6835 1.06464C28.6311 1.10142 28.5845 1.14546 28.5449 1.1954C28.3559 1.41332 28.0693 1.86163 27.685 2.44068C26.5386 4.1654 24.5669 7.05446 22.1638 8.17521C21.0833 8.93864 20.0688 9.78939 19.1307 10.7187C18.3496 11.553 17.8488 12.3936 17.8488 13.2933V13.4957C17.8808 13.7156 17.9324 13.9323 18.0031 14.1432V14.1744H18.0346C18.1651 14.2422 18.2807 14.335 18.3747 14.4472C18.4688 14.5594 18.5394 14.6888 18.5827 14.8281C18.6991 15.1657 18.7545 15.5208 18.7465 15.8773C18.7482 16.1214 18.7207 16.3649 18.6646 16.6027C18.6295 16.7666 18.562 16.9221 18.4661 17.0603H18.2929V17.079H18.1669C17.8818 17.0401 17.6051 16.9549 17.348 16.8268C16.9858 16.6369 16.6142 16.419 16.2362 16.2042C16.2203 16.1865 16.2024 16.1708 16.1827 16.1575C16.1571 16.1413 16.1279 16.1317 16.0976 16.1295C15.7832 15.9547 15.4557 15.8038 15.1181 15.678L14.9669 15.622C14.5679 15.0879 14.3387 14.4485 14.3087 13.7852C14.2909 13.5732 14.3513 13.362 14.4787 13.1906C14.5719 13.0894 14.6225 12.9569 14.6205 12.8201C14.6205 12.5088 14.3905 12.1352 14.0346 11.718C13.3254 10.9546 12.5702 10.2342 11.7732 9.56059C10.8728 8.78777 10.0148 7.96782 9.20315 7.10427C8.03779 5.79672 6.82519 3.16917 6.39685 1.92389L6.3496 1.78691L6.25511 1.89587C5.85659 2.36922 5.64809 2.97089 5.66929 3.58634C5.66929 5.07134 6.61417 6.81163 7.55905 8.197C7.89291 8.68578 8.22362 9.13097 8.50393 9.50144C8.22677 9.2337 7.87401 8.90993 7.47401 8.51766C7.01789 8.10738 6.67163 7.59186 6.46614 7.0171C6.36308 6.68778 6.30379 6.34662 6.28976 6.00219L6.15118 5.97106C5.85157 6.35818 5.68296 6.82875 5.66929 7.31596C5.681 7.77806 5.81806 8.22856 6.06614 8.6204C6.4813 9.25016 6.98384 9.8192 7.55905 10.3109C8.01259 10.7312 8.45984 11.1172 8.79685 11.469C8.72126 11.4316 8.63307 11.3849 8.53543 11.3289C7.71675 10.8709 6.97333 10.2925 6.33071 9.61351C6.16187 9.44402 6.05163 9.22607 6.01574 8.99087C6.01456 8.97533 6.01456 8.95972 6.01574 8.94417C6.03848 8.88861 6.06478 8.83454 6.09448 8.78229L5.95905 8.68578C5.90569 8.74576 5.86977 8.81892 5.85511 8.89747C5.78385 9.07697 5.74752 9.26815 5.74803 9.46096C5.74803 10.2829 6.35275 11.1234 7.08661 11.8177C7.59763 12.304 8.1704 12.7226 8.79055 13.0629C8.51753 13.0041 8.24994 12.9228 7.99055 12.8201C7.45826 12.624 6.95748 12.3127 6.7685 11.8862L6.60787 11.9173V11.9795C6.60809 12.4092 6.74836 12.8273 7.00787 13.1719C7.42947 13.689 7.96919 14.0998 8.58267 14.3705C8.86489 14.5111 9.15395 14.6379 9.44882 14.7503C9.13385 14.6538 8.7748 14.523 8.46614 14.3954C8.28346 14.3207 8.11653 14.2429 7.9811 14.1775C7.88032 14.1312 7.78343 14.0771 7.69134 14.0156L7.55905 14.0965C7.68189 14.8468 8.3496 15.5068 9.10866 15.9894C9.34095 16.136 9.58297 16.2671 9.83307 16.3816C9.57165 16.282 9.30393 16.1637 9.00787 16.0329L8.89448 15.9831V16.1419C8.89995 16.3745 8.9675 16.6015 9.09029 16.7999C9.21308 16.9984 9.38674 17.1612 9.5937 17.272C9.97725 17.4937 10.4097 17.6198 10.8535 17.6394C10.6447 17.6666 10.4342 17.6791 10.2236 17.6767H9.90866L9.84252 17.8168C10.3387 18.2504 10.9648 18.5117 11.6252 18.5609L11.4929 18.5827L11.1779 18.62L11.0047 18.6387H10.8472L10.9386 18.7663C11.1267 18.9768 11.3767 19.1237 11.6535 19.1866C11.7571 19.2169 11.8623 19.2418 11.9685 19.2613L11.8236 19.2894L11.6756 19.3267L11.7858 19.4295C12.1987 19.8023 12.7384 20.0079 13.2976 20.0054C13.5256 20.0049 13.7524 19.9735 13.9717 19.912C13.8912 19.9666 13.8045 20.0115 13.7134 20.0459L13.5685 20.0988C13.5326 20.1102 13.4978 20.1248 13.4646 20.1424L13.3858 20.1984L13.4488 20.27C13.6426 20.4655 13.8799 20.6137 14.1417 20.7028C14.4704 20.8285 14.8192 20.895 15.1716 20.8989H15.3291L14.9543 21.0857C14.8738 21.1241 14.7959 21.1677 14.7213 21.2164L14.6142 21.2943L14.7339 21.3565C15.0858 21.5469 15.4603 21.6934 15.8488 21.7924L15.9748 21.8142L15.748 22.2874L15.9874 22.2718L15.7071 22.4835L15.7638 22.6298H15.8299L15.515 22.8291L15.5465 22.9785H15.6378L15.2346 23.1373L15.2567 23.2961H15.3228L14.9606 23.405V23.5358L14.7622 23.5576V23.7008H14.4472L14.4157 23.8595L14.5197 23.9031L14.0409 24.0277L14.1764 24.1397C14.3143 24.2628 14.4846 24.3448 14.6677 24.3763L14.6268 24.7126C14.294 24.9583 13.9116 25.1304 13.5055 25.2169L12 24.8745C11.9266 24.8513 11.8502 24.8387 11.7732 24.8371C11.7075 24.8341 11.6426 24.8515 11.5874 24.8869V24.9056C11.1402 24.8184 10.9575 25.1048 11.1779 25.4566C11.0803 25.027 11.2 24.9461 11.5496 25.0893C11.5789 25.1478 11.6236 25.1975 11.679 25.2331C11.7345 25.2687 11.7985 25.2889 11.8646 25.2916L12.3905 25.3819L11.8047 25.3477H11.7071C11.616 25.3447 11.5272 25.3759 11.4583 25.4348C11.4197 25.4692 11.3913 25.5133 11.3764 25.5625C10.926 25.5843 10.822 25.8956 11.1213 26.2069C10.9197 25.8053 11.0299 25.6963 11.4142 25.7648C11.4236 25.7819 11.4352 25.7976 11.4488 25.8115C11.5192 25.8643 11.6062 25.8907 11.6945 25.8862L12.2835 25.8613C12.1734 25.8725 12.0665 25.9042 11.9685 25.9547C11.9122 25.9754 11.8608 26.0072 11.8173 26.0481C11.7984 26.0686 11.7844 26.0931 11.7764 26.1197C11.326 26.1197 11.2567 26.4871 11.5591 26.7828C11.3638 26.3906 11.4898 26.2598 11.8551 26.3159L11.8866 26.3377C11.9604 26.3793 12.0441 26.4008 12.1291 26.3999H12.1701C12.7755 26.3508 13.3734 26.2349 13.9528 26.0544C14.0397 26.091 14.1133 26.1529 14.1638 26.2318C14.2027 26.2924 14.2344 26.3571 14.2583 26.4248L13.7638 26.3532C13.7047 26.3412 13.6446 26.3349 13.5842 26.3345C13.5101 26.3308 13.4366 26.3492 13.3732 26.3875C13.3514 26.402 13.3332 26.4212 13.3197 26.4435C12.8882 26.4124 12.7433 26.7081 13.0047 27.0288C12.8661 26.6085 12.9764 26.5182 13.3386 26.6303C13.3754 26.6782 13.4231 26.717 13.4778 26.7435C13.5324 26.77 13.5926 26.7835 13.6535 26.7828L14.1858 26.8264H13.5559C13.4604 26.8234 13.3672 26.8556 13.2945 26.9167C13.2528 26.9541 13.2233 27.0029 13.2094 27.0568C12.7622 27.1129 12.6929 27.4553 13.0205 27.7199C12.7842 27.3432 12.8756 27.2218 13.2504 27.2529C13.2593 27.2676 13.2699 27.2812 13.2819 27.2934C13.3456 27.3451 13.4263 27.3717 13.5087 27.3681H13.5591L14.1732 27.2965C14.0688 27.3186 13.9694 27.3598 13.8803 27.4179C13.8292 27.4424 13.7833 27.4762 13.7449 27.5176C13.7272 27.5385 13.7143 27.5629 13.7071 27.5892C13.2598 27.6483 13.2283 28.0032 13.5433 28.2678C13.3165 27.9067 13.4142 27.7604 13.7575 27.7728L13.7827 27.7884C13.8521 27.8261 13.9302 27.8454 14.0094 27.8445H14.0945C14.6921 27.7435 15.2764 27.5764 15.8362 27.3463C15.9237 27.3855 16.0015 27.4432 16.0641 27.5153C16.1267 27.5873 16.1725 27.6721 16.1984 27.7635C16.2505 27.9233 16.3389 28.0691 16.4567 28.19C16.5638 28.4515 16.4567 28.5854 16.0157 28.5449C16.3528 28.6881 16.6457 28.5449 16.6016 28.2149C16.6387 28.1781 16.6681 28.1344 16.6881 28.0863C16.7081 28.0382 16.7183 27.9867 16.7181 27.9347C16.6957 27.7288 16.6124 27.5339 16.4787 27.3744C16.3591 27.2094 16.2236 27.063 16.126 26.9416L17.0709 26.319L17.052 26.5213L17.7543 26.1104V26.6023L17.9024 26.6428L18.2142 26.1509L18.3685 26.621L18.7559 25.9112L18.9575 26.2972L19.2126 25.5843L19.2882 25.7866H19.4362L19.6913 25.1173L19.726 25.2916L19.874 25.3103L20.189 24.669C20.2657 24.8746 20.3529 25.0762 20.4504 25.2729C20.731 25.866 21.0652 26.4328 21.4488 26.9665C21.6226 27.208 21.8234 27.4294 22.0472 27.6265C22.2093 27.7848 22.4219 27.8827 22.6488 27.9036C22.7645 27.9013 22.8758 27.8595 22.9638 27.7853L23.0331 27.7635L22.9039 27.4148C22.9522 27.4968 23.007 27.5749 23.0677 27.6483C23.1333 27.7397 23.2189 27.8151 23.3182 27.869C23.4174 27.923 23.5278 27.9539 23.6409 27.9596C23.7497 27.9564 23.8567 27.9321 23.9559 27.888L24.0283 27.8569L23.789 27.1876C23.8946 27.3627 24.0262 27.5212 24.1795 27.6577C24.3451 27.8069 24.5602 27.8911 24.7843 27.8943C24.9434 27.8915 25.1001 27.8555 25.2441 27.7884L25.3291 27.7511L25.0866 27.3962C25.2083 27.515 25.3436 27.6195 25.4898 27.7075C25.6555 27.8125 25.8472 27.8707 26.0441 27.8756C26.2453 27.8803 26.4429 27.8214 26.6079 27.7075L26.6835 27.6545L26.211 27.1689C26.3678 27.3089 26.5376 27.434 26.7181 27.5425C26.9758 27.7003 27.2717 27.7863 27.5748 27.7915C27.8633 27.7859 28.1462 27.7123 28.4 27.5767L28.4976 27.5238L27.1181 26.4155L27.4079 26.5805C28.0121 26.9509 28.701 27.165 29.411 27.2031C29.9375 27.2011 30.4487 27.0283 30.8661 26.7112L30.9984 26.6147L29.1591 26.1135C29.4079 26.1353 29.6567 26.1509 29.9024 26.1509C30.4873 26.1659 31.0699 26.0708 31.6189 25.8707C32.1185 25.688 32.5309 25.327 32.7748 24.8589L32.8346 24.7406L32.715 24.7375Z" fill="#2A3C77"/>
<path d="M20.9543 23.7164C21.0786 23.826 21.2136 23.923 21.3575 24.0059L21.2536 24.09L20.9543 23.7164ZM25.2473 24.8776L24.4252 23.4611L24.2299 23.5732L24.7811 24.5072C24.2414 24.3632 23.7577 24.0629 23.3921 23.6448L23.2158 23.7818L23.937 24.7344C23.2481 24.6606 22.6111 24.338 22.148 23.8285L22.1291 23.8067L21.9622 23.9561L21.9843 23.9779L22.9921 25.0489C22.5512 25.0271 22.0819 24.5757 21.6598 24.1709L21.5622 24.0776C21.677 24.1233 21.8011 24.1415 21.9244 24.1305H22.0063L21.4677 23.1529C21.9018 23.593 22.4777 23.8694 23.0961 23.9343H23.2158L22.6047 23.1311C22.9828 23.4127 23.4098 23.6237 23.8646 23.7538L23.9717 23.788L23.4173 22.3933L23.3165 22.4338L23.789 23.6168C23.1729 23.4356 22.6249 23.0781 22.2142 22.5894L22.1291 22.6548L22.9921 23.8067C22.6336 23.7485 22.2909 23.6182 21.9853 23.4238C21.6798 23.2294 21.4179 22.9751 21.2158 22.6766L21.1024 22.7264L21.7984 24.0215C21.3417 23.9997 20.7906 23.4362 20.4095 23.0035L20.3244 23.072L21.2095 24.2239C20.8945 24.3702 20.3685 24.1585 19.6126 23.6012L19.5465 23.6884C20.1764 24.1554 20.6457 24.3858 20.9921 24.3858C21.1041 24.3861 21.2137 24.3536 21.3071 24.2924H21.326L21.9118 25.217C21.578 25.2637 21.011 24.9866 20.2929 24.4169L20.1575 24.5943C20.8756 25.1641 21.4425 25.4474 21.8457 25.4474C21.9482 25.4491 22.0497 25.4267 22.1417 25.382L22.252 25.3259L21.8835 24.7189C22.3055 25.0862 22.7591 25.3789 23.2252 25.2512L23.4016 25.2014L22.9291 24.6877C23.3181 24.8714 23.7422 24.9711 24.1732 24.9804H24.4063L23.9717 24.4138C24.2904 24.5851 24.6302 24.7149 24.9827 24.7998L25.2473 24.8776Z" fill="#F1FAFF"/>
</g>
<defs>
<radialGradient id="paint0_radial_690_3453" cx="0" cy="0" r="1" gradientUnits="userSpaceOnUse" gradientTransform="translate(19.9433 16.332) scale(17.9465 17.7391)">
<stop stop-color="#FFF200"/>
<stop offset="0.96" stop-color="#FBB040"/>
</radialGradient>
<linearGradient id="paint1_linear_690_3453" x1="19.6882" y1="35.0017" x2="19.6882" y2="20.1984" gradientUnits="userSpaceOnUse">
<stop stop-color="#7F3F98"/>
<stop offset="1" stop-color="#23306C"/>
</linearGradient>
<clipPath id="clip0_690_3453">
<rect width="40" height="33" fill="white"/>
</clipPath>
</defs>
</svg>
