<svg width="42" height="40" viewBox="0 0 42 40" fill="none" xmlns="http://www.w3.org/2000/svg">
<path fill-rule="evenodd" clip-rule="evenodd" d="M29.0202 0.209805C30.3348 0.209805 31.6473 0.395222 32.8952 0.813972C40.5848 3.31397 43.3556 11.7515 41.041 19.1265C39.7285 22.8952 37.5827 26.3348 34.7723 29.1452C30.7494 33.0411 26.3348 36.4994 21.5827 39.4786L21.0619 39.7931L20.5202 39.4577C15.7515 36.4994 11.3119 33.0411 7.25147 29.1244C4.4598 26.314 2.31188 22.8952 0.97855 19.1265C-1.37562 11.7515 1.39522 3.31397 9.16813 0.770222C9.7723 0.561889 10.3952 0.416055 11.0202 0.334805H11.2702C11.8556 0.249389 12.4369 0.209805 13.0202 0.209805H13.2494C14.5619 0.249389 15.8327 0.478555 17.064 0.897305H17.1869C17.2702 0.936889 17.3327 0.980639 17.3744 1.02022C17.8348 1.16814 18.2702 1.33481 18.6869 1.56397L19.4785 1.91814C19.6698 2.02016 19.8846 2.17606 20.0701 2.31078C20.1877 2.39615 20.2936 2.47302 20.3744 2.52231C20.4084 2.54237 20.4429 2.56254 20.4778 2.58288C20.6564 2.68715 20.8425 2.79577 20.9994 2.91606C23.314 1.14731 26.1244 0.188972 29.0202 0.209805ZM34.5619 15.2098C35.416 15.1869 36.1452 14.5015 36.2077 13.6244V13.3765C36.2702 10.4577 34.5015 7.81397 31.8119 6.79314C30.9577 6.49939 30.0202 6.95981 29.7077 7.83481C29.4161 8.70981 29.8744 9.66814 30.7494 9.97856C32.0848 10.4786 32.9785 11.7931 32.9785 13.2494V13.314C32.939 13.7911 33.0827 14.2515 33.3744 14.6056C33.666 14.9598 34.1035 15.1661 34.5619 15.2098Z" fill="#130F26"/>
</svg>
