<svg width="34" height="35" viewBox="0 0 34 35" fill="none" xmlns="http://www.w3.org/2000/svg">
<rect x="12" y="12" width="11" height="11" rx="2" fill="#595959"/>
<rect x="0.785736" y="1.21436" width="32.7143" height="32.7143" rx="16.3571" stroke="#595959"/>
<path d="M23.3205 14.1119V20.4705C23.2736 20.6912 23.2466 20.9177 23.1763 21.1308C22.7745 22.3705 21.6615 23.1841 20.3519 23.1867C18.3978 23.1919 16.4437 23.1919 14.4896 23.1867C13.862 23.1867 13.2835 23.0121 12.7753 22.6406C11.9353 22.0275 11.5238 21.1918 11.5238 20.152C11.5238 18.2525 11.5244 16.3521 11.5256 14.4509C11.523 14.2552 11.5378 14.0597 11.5696 13.8666C11.7679 12.7767 12.3869 12.0164 13.409 11.6002C13.6716 11.492 13.963 11.4584 14.2414 11.3906H20.6018C20.6844 11.4051 20.7674 11.4191 20.8496 11.4346C21.9316 11.6388 22.689 12.2523 23.1077 13.2675C23.2163 13.5355 23.2513 13.8305 23.3205 14.1119ZM22.3294 17.2915H22.3337C22.3337 16.3318 22.3337 15.372 22.3337 14.4119C22.3337 14.1047 22.293 13.8057 22.1559 13.5294C21.7837 12.7792 21.1767 12.3832 20.3374 12.3803C18.3898 12.3734 16.4447 12.3778 14.4982 12.3803C14.3832 12.3816 14.2683 12.3906 14.1545 12.4074C13.2615 12.5332 12.5217 13.3411 12.5156 14.2468C12.5026 16.2546 12.5102 18.2624 12.5095 20.2699C12.5058 20.5398 12.5652 20.8068 12.683 21.0497C13.0602 21.814 13.6788 22.2038 14.5321 22.2038C16.4557 22.2067 18.3792 22.2067 20.3028 22.2038C20.4331 22.2034 20.5632 22.1942 20.6923 22.1764C21.5684 22.056 22.3135 21.2387 22.3254 20.3558C22.341 19.334 22.3294 18.3126 22.3294 17.2915Z" fill="#595959"/>
<path d="M20.3709 17.3051C20.3554 18.9382 19.0177 20.26 17.4019 20.2391C15.7706 20.2178 14.4585 18.8902 14.474 17.2758C14.4895 15.6424 15.8258 14.3216 17.4427 14.3425C19.0743 14.3638 20.3861 15.6911 20.3709 17.3051ZM17.4243 15.3279C17.0358 15.3274 16.6559 15.4423 16.3327 15.6578C16.0095 15.8734 15.7575 16.18 15.6086 16.5388C15.4597 16.8976 15.4206 17.2926 15.4962 17.6736C15.5718 18.0547 15.7588 18.4047 16.0335 18.6795C16.3081 18.9542 16.6581 19.1414 17.0392 19.2171C17.4202 19.2929 17.8151 19.2539 18.174 19.1052C18.5329 18.9564 18.8396 18.7045 19.0552 18.3814C19.2709 18.0583 19.3859 17.6784 19.3856 17.2899C19.3858 17.0323 19.3353 16.7771 19.2368 16.539C19.1383 16.3009 18.9939 16.0845 18.8117 15.9023C18.6296 15.72 18.4133 15.5755 18.1752 15.477C17.9371 15.3784 17.6819 15.3277 17.4243 15.3279Z" fill="#F4F2F2"/>
<path d="M20.623 14.83C20.4281 14.8314 20.2406 14.7553 20.1017 14.6185C19.9628 14.4817 19.884 14.2953 19.8826 14.1003C19.8812 13.9054 19.9572 13.7179 20.0941 13.579C20.2309 13.4401 20.4173 13.3613 20.6122 13.3599C20.7087 13.3592 20.8045 13.3775 20.8939 13.4138C20.9834 13.45 21.0648 13.5036 21.1336 13.5713C21.2023 13.6391 21.2571 13.7197 21.2947 13.8086C21.3322 13.8975 21.352 13.993 21.3527 14.0895C21.3534 14.186 21.3351 14.2818 21.2988 14.3712C21.2625 14.4607 21.209 14.5421 21.1412 14.6109C21.0735 14.6796 20.9928 14.7344 20.9039 14.7719C20.815 14.8095 20.7196 14.8293 20.623 14.83Z" fill="#F4F2F2"/>
</svg>
