<svg width="48" height="48" viewBox="0 0 48 48" fill="none" xmlns="http://www.w3.org/2000/svg">
<path d="M24.4329 0.847656C11.4383 0.847656 0.865723 11.4202 0.865723 24.4148C0.865723 37.4094 11.4383 47.982 24.4329 47.982C37.4275 47.982 48 37.4094 48 24.4148C48 11.4202 37.4275 0.847656 24.4329 0.847656ZM18.3888 8.09909H30.4734C36.1386 8.09909 40.7486 12.7074 40.7486 18.3708V30.4553C40.7486 36.1205 36.1403 40.7305 30.4769 40.7305H18.3924C12.7272 40.7305 8.11716 36.1222 8.11716 30.4589V18.3743C8.11716 12.7091 12.7255 8.09909 18.3888 8.09909ZM18.3888 11.7248C14.7251 11.7248 11.7429 14.7087 11.7429 18.3743V30.4589C11.7429 34.1226 14.7268 37.1048 18.3924 37.1048H30.4769C34.1407 37.1048 37.1229 34.1209 37.1229 30.4553V18.3708C37.1229 14.707 34.139 11.7248 30.4734 11.7248H18.3888ZM32.8952 14.7451C33.5624 14.7451 34.1026 15.2853 34.1026 15.9524C34.1026 16.6196 33.5624 17.1634 32.8952 17.1634C32.2281 17.1634 31.6843 16.6196 31.6843 15.9524C31.6843 15.2853 32.2281 14.7451 32.8952 14.7451ZM24.4329 15.3505C29.4309 15.3505 33.4972 19.4168 33.4972 24.4148C33.4972 29.4129 29.4309 33.4791 24.4329 33.4791C19.4348 33.4791 15.3686 29.4129 15.3686 24.4148C15.3686 19.4168 19.4348 15.3505 24.4329 15.3505ZM24.4329 18.9762C22.9905 18.9762 21.6072 19.5492 20.5872 20.5692C19.5673 21.5891 18.9943 22.9724 18.9943 24.4148C18.9943 25.8572 19.5673 27.2405 20.5872 28.2605C21.6072 29.2804 22.9905 29.8534 24.4329 29.8534C25.8753 29.8534 27.2586 29.2804 28.2785 28.2605C29.2985 27.2405 29.8715 25.8572 29.8715 24.4148C29.8715 22.9724 29.2985 21.5891 28.2785 20.5692C27.2586 19.5492 25.8753 18.9762 24.4329 18.9762Z" fill="#007210"/>
</svg>
