<svg width="131" height="50" viewBox="0 0 131 50" fill="none" xmlns="http://www.w3.org/2000/svg">
<path d="M30.7714 11.579C20.3476 17.8739 14.5602 29.3865 11.0818 40.6457C10.903 41.2243 10.6844 41.805 10.4846 42.3702C9.92611 41.2434 6.11493 31.8846 4.57625 32.4568C3.677 32.7913 4.19139 33.9931 4.38929 34.4779C5.82173 37.9827 7.2211 41.1247 8.93263 44.5139C10.2208 47.0654 12.618 46.4002 14.9925 45.6237C18.6178 44.4381 18.9121 44.0982 22.6251 42.7336C23.2371 42.5086 23.8801 42.3267 24.4474 42.0456C25.1142 41.7147 25.8293 41.0143 25.4752 40.251C25.074 39.3858 24.201 39.4469 23.4553 39.7645C23.2996 39.8312 23.1415 39.8924 22.982 39.9497C21.2294 40.5789 13.2751 43.9353 13.0101 43.3679C12.9207 43.1768 12.951 42.9545 12.9847 42.7464C13.9585 36.7417 16.537 31.0217 19.5832 25.7954C21.6327 22.2784 24.2631 19.1017 27.3284 16.4222C29.7915 14.2689 32.5685 12.4406 35.5935 11.1788C38.8373 9.82545 41.9765 9.5466 45.4418 9.34076C47.4368 9.22247 45.8567 7.32185 44.7468 7.10777C43.5269 6.87213 42.2209 7.2953 41.0358 7.54201C37.2868 8.3244 33.8632 9.712 30.7714 11.579Z" fill="#FF2A01"/>
<path d="M55.9343 4.09588H57.4427L60.0651 10.4991H60.1616L62.7841 4.09588H64.2924V12.3333H63.1099V6.37242H63.0334L60.6041 12.3212H59.6227L57.1933 6.3684H57.1169V12.3333H55.9343V4.09588ZM68.6051 12.4579C68.0259 12.4579 67.5205 12.3252 67.0888 12.0597C66.6571 11.7943 66.3219 11.4229 66.0832 10.9456C65.8446 10.4683 65.7253 9.91057 65.7253 9.27239C65.7253 8.63153 65.8446 8.07111 66.0832 7.59113C66.3219 7.11115 66.6571 6.73843 67.0888 6.47297C67.5205 6.20751 68.0259 6.07478 68.6051 6.07478C69.1843 6.07478 69.6898 6.20751 70.1215 6.47297C70.5532 6.73843 70.8884 7.11115 71.127 7.59113C71.3657 8.07111 71.485 8.63153 71.485 9.27239C71.485 9.91057 71.3657 10.4683 71.127 10.9456C70.8884 11.4229 70.5532 11.7943 70.1215 12.0597C69.6898 12.3252 69.1843 12.4579 68.6051 12.4579ZM68.6092 11.4484C68.9846 11.4484 69.2956 11.3492 69.5423 11.1507C69.789 10.9523 69.9713 10.6882 70.0893 10.3584C70.21 10.0286 70.2703 9.66522 70.2703 9.26837C70.2703 8.8742 70.21 8.5122 70.0893 8.18239C69.9713 7.84989 69.789 7.58309 69.5423 7.38198C69.2956 7.18087 68.9846 7.08032 68.6092 7.08032C68.2311 7.08032 67.9173 7.18087 67.668 7.38198C67.4213 7.58309 67.2376 7.84989 67.1169 8.18239C66.999 8.5122 66.94 8.8742 66.94 9.26837C66.94 9.66522 66.999 10.0286 67.1169 10.3584C67.2376 10.6882 67.4213 10.9523 67.668 11.1507C67.9173 11.3492 68.2311 11.4484 68.6092 11.4484ZM77.4569 7.66353L76.3669 7.85659C76.3213 7.71716 76.2489 7.58443 76.1497 7.4584C76.0532 7.33237 75.9218 7.22914 75.7555 7.14869C75.5893 7.06825 75.3815 7.02803 75.1321 7.02803C74.7915 7.02803 74.5073 7.10445 74.2794 7.25729C74.0515 7.40745 73.9375 7.60186 73.9375 7.8405C73.9375 8.04698 74.0139 8.21322 74.1668 8.33925C74.3196 8.46528 74.5663 8.56851 74.9068 8.64896L75.8883 8.8742C76.4567 9.00559 76.8804 9.20804 77.1593 9.48154C77.4381 9.75505 77.5776 10.1103 77.5776 10.5474C77.5776 10.9175 77.4703 11.2473 77.2558 11.5369C77.044 11.8238 76.7477 12.049 76.3669 12.2126C75.9888 12.3762 75.5504 12.4579 75.0516 12.4579C74.3598 12.4579 73.7954 12.3105 73.3583 12.0155C72.9212 11.7179 72.6531 11.2955 72.5539 10.7485L73.7163 10.5715C73.7887 10.8746 73.9375 11.1038 74.1627 11.2593C74.388 11.4122 74.6816 11.4886 75.0436 11.4886C75.4378 11.4886 75.7528 11.4068 75.9888 11.2432C76.2248 11.077 76.3428 10.8746 76.3428 10.6359C76.3428 10.4428 76.2704 10.2806 76.1256 10.1492C75.9834 10.0178 75.7649 9.91862 75.4699 9.85158L74.4242 9.62232C73.8477 9.49093 73.4213 9.28178 73.1451 8.99486C72.8716 8.70795 72.7349 8.34461 72.7349 7.90486C72.7349 7.54018 72.8368 7.22109 73.0406 6.94759C73.2444 6.67408 73.5259 6.46091 73.8852 6.30806C74.2445 6.15254 74.6561 6.07478 75.12 6.07478C75.7877 6.07478 76.3133 6.21958 76.6967 6.50917C77.0802 6.79609 77.3335 7.18087 77.4569 7.66353ZM81.7837 6.15522V7.12054H78.4091V6.15522H81.7837ZM79.3141 4.67507H80.5167V10.5193C80.5167 10.7525 80.5516 10.9282 80.6213 11.0462C80.691 11.1615 80.7809 11.2406 80.8908 11.2835C81.0034 11.3237 81.1254 11.3438 81.2568 11.3438C81.3534 11.3438 81.4378 11.3371 81.5102 11.3237C81.5826 11.3103 81.6389 11.2996 81.6792 11.2915L81.8963 12.285C81.8266 12.3118 81.7274 12.3386 81.5987 12.3654C81.47 12.3949 81.3091 12.411 81.116 12.4137C80.7996 12.4191 80.5047 12.3627 80.2312 12.2448C79.9577 12.1268 79.7365 11.9444 79.5675 11.6978C79.3986 11.4511 79.3141 11.1414 79.3141 10.7686V4.67507ZM86.1116 14.65V6.15522H87.286V7.15674H87.3866C87.4563 7.02803 87.5569 6.87921 87.6882 6.71028C87.8196 6.54135 88.002 6.39387 88.2353 6.26784C88.4685 6.13913 88.7769 6.07478 89.1604 6.07478C89.6591 6.07478 90.1042 6.20081 90.4957 6.45286C90.8872 6.70492 91.1942 7.06825 91.4168 7.54287C91.642 8.01748 91.7546 8.58863 91.7546 9.2563C91.7546 9.92398 91.6434 10.4965 91.4208 10.9738C91.1983 11.4484 90.8926 11.8144 90.5038 12.0718C90.115 12.3265 89.6712 12.4539 89.1724 12.4539C88.797 12.4539 88.49 12.3909 88.2514 12.2649C88.0154 12.1388 87.8304 11.9914 87.6963 11.8224C87.5622 11.6535 87.459 11.5033 87.3866 11.372H87.3142V14.65H86.1116ZM87.2901 9.24424C87.2901 9.67863 87.3531 10.0594 87.4791 10.3865C87.6051 10.7137 87.7875 10.9697 88.0261 11.1548C88.2648 11.3371 88.557 11.4283 88.9029 11.4283C89.2623 11.4283 89.5626 11.3331 89.8039 11.1427C90.0452 10.9496 90.2276 10.6882 90.3509 10.3584C90.4769 10.0286 90.54 9.65718 90.54 9.24424C90.54 8.83666 90.4783 8.47064 90.3549 8.14619C90.2343 7.82173 90.0519 7.56566 89.8079 7.37796C89.5666 7.19026 89.2649 7.09641 88.9029 7.09641C88.5544 7.09641 88.2594 7.18623 88.0181 7.36589C87.7794 7.54555 87.5984 7.79626 87.4751 8.11803C87.3517 8.43981 87.2901 8.81521 87.2901 9.24424ZM95.7044 12.4579C95.1252 12.4579 94.6198 12.3252 94.1881 12.0597C93.7563 11.7943 93.4212 11.4229 93.1825 10.9456C92.9439 10.4683 92.8245 9.91057 92.8245 9.27239C92.8245 8.63153 92.9439 8.07111 93.1825 7.59113C93.4212 7.11115 93.7563 6.73843 94.1881 6.47297C94.6198 6.20751 95.1252 6.07478 95.7044 6.07478C96.2836 6.07478 96.789 6.20751 97.2208 6.47297C97.6525 6.73843 97.9876 7.11115 98.2263 7.59113C98.4649 8.07111 98.5843 8.63153 98.5843 9.27239C98.5843 9.91057 98.4649 10.4683 98.2263 10.9456C97.9876 11.4229 97.6525 11.7943 97.2208 12.0597C96.789 12.3252 96.2836 12.4579 95.7044 12.4579ZM95.7084 11.4484C96.0838 11.4484 96.3949 11.3492 96.6416 11.1507C96.8883 10.9523 97.0706 10.6882 97.1886 10.3584C97.3092 10.0286 97.3696 9.66522 97.3696 9.26837C97.3696 8.8742 97.3092 8.5122 97.1886 8.18239C97.0706 7.84989 96.8883 7.58309 96.6416 7.38198C96.3949 7.18087 96.0838 7.08032 95.7084 7.08032C95.3303 7.08032 95.0166 7.18087 94.7672 7.38198C94.5206 7.58309 94.3369 7.84989 94.2162 8.18239C94.0982 8.5122 94.0392 8.8742 94.0392 9.26837C94.0392 9.66522 94.0982 10.0286 94.2162 10.3584C94.3369 10.6882 94.5206 10.9523 94.7672 11.1507C95.0166 11.3492 95.3303 11.4484 95.7084 11.4484ZM99.9267 14.65V6.15522H101.101V7.15674H101.202C101.271 7.02803 101.372 6.87921 101.503 6.71028C101.635 6.54135 101.817 6.39387 102.05 6.26784C102.284 6.13913 102.592 6.07478 102.975 6.07478C103.474 6.07478 103.919 6.20081 104.311 6.45286C104.702 6.70492 105.009 7.06825 105.232 7.54287C105.457 8.01748 105.57 8.58863 105.57 9.2563C105.57 9.92398 105.458 10.4965 105.236 10.9738C105.013 11.4484 104.708 11.8144 104.319 12.0718C103.93 12.3265 103.486 12.4539 102.988 12.4539C102.612 12.4539 102.305 12.3909 102.066 12.2649C101.83 12.1388 101.645 11.9914 101.511 11.8224C101.377 11.6535 101.274 11.5033 101.202 11.372H101.129V14.65H99.9267ZM101.105 9.24424C101.105 9.67863 101.168 10.0594 101.294 10.3865C101.42 10.7137 101.603 10.9697 101.841 11.1548C102.08 11.3371 102.372 11.4283 102.718 11.4283C103.077 11.4283 103.378 11.3331 103.619 11.1427C103.86 10.9496 104.043 10.6882 104.166 10.3584C104.292 10.0286 104.355 9.65718 104.355 9.24424C104.355 8.83666 104.293 8.47064 104.17 8.14619C104.049 7.82173 103.867 7.56566 103.623 7.37796C103.382 7.19026 103.08 7.09641 102.718 7.09641C102.369 7.09641 102.074 7.18623 101.833 7.36589C101.595 7.54555 101.414 7.79626 101.29 8.11803C101.167 8.43981 101.105 8.81521 101.105 9.24424ZM110.831 9.77114V6.15522H112.037V12.3333H110.855V11.2634H110.791C110.648 11.5932 110.42 11.868 110.107 12.0879C109.796 12.3051 109.408 12.4137 108.944 12.4137C108.547 12.4137 108.196 12.3265 107.891 12.1523C107.588 11.9753 107.349 11.7138 107.175 11.3679C107.003 11.022 106.917 10.5943 106.917 10.0849V6.15522H108.12V9.94007C108.12 10.3611 108.236 10.6962 108.47 10.9456C108.703 11.195 109.006 11.3197 109.379 11.3197C109.604 11.3197 109.828 11.2634 110.05 11.1507C110.276 11.0381 110.462 10.8678 110.61 10.6399C110.76 10.412 110.833 10.1224 110.831 9.77114ZM114.856 4.09588V12.3333H113.653V4.09588H114.856ZM118.272 12.47C117.88 12.47 117.526 12.3976 117.21 12.2528C116.893 12.1053 116.643 11.8922 116.458 11.6133C116.275 11.3344 116.184 10.9925 116.184 10.5876C116.184 10.239 116.251 9.95214 116.385 9.7269C116.519 9.50165 116.7 9.32334 116.928 9.19195C117.156 9.06056 117.411 8.96135 117.693 8.89431C117.974 8.82727 118.261 8.77633 118.553 8.74147C118.923 8.69856 119.224 8.66371 119.454 8.63689C119.685 8.6074 119.852 8.56047 119.957 8.49612C120.062 8.43176 120.114 8.32719 120.114 8.18239V8.15423C120.114 7.80296 120.015 7.5308 119.816 7.33774C119.62 7.14467 119.328 7.04814 118.939 7.04814C118.534 7.04814 118.215 7.13797 117.982 7.31762C117.752 7.4946 117.592 7.69169 117.503 7.90888L116.373 7.65146C116.507 7.27606 116.703 6.97306 116.96 6.74246C117.221 6.50917 117.52 6.34024 117.857 6.23566C118.195 6.12841 118.551 6.07478 118.923 6.07478C119.17 6.07478 119.431 6.10427 119.708 6.16327C119.986 6.21958 120.247 6.32415 120.488 6.47699C120.732 6.62984 120.932 6.84837 121.087 7.13261C121.243 7.41416 121.321 7.78017 121.321 8.23065V12.3333H120.146V11.4886H120.098C120.02 11.6441 119.903 11.797 119.748 11.9471C119.592 12.0973 119.393 12.222 119.149 12.3212C118.905 12.4204 118.612 12.47 118.272 12.47ZM118.533 11.5047C118.866 11.5047 119.15 11.439 119.386 11.3076C119.624 11.1762 119.805 11.0046 119.929 10.7928C120.055 10.5783 120.118 10.349 120.118 10.105V9.30859C120.075 9.35149 119.992 9.39172 119.869 9.42926C119.748 9.46411 119.61 9.49495 119.454 9.52177C119.299 9.5459 119.147 9.56869 119 9.59014C118.852 9.60891 118.729 9.625 118.63 9.63841C118.396 9.6679 118.183 9.71751 117.99 9.78723C117.8 9.85695 117.647 9.9575 117.532 10.0889C117.419 10.2176 117.363 10.3892 117.363 10.6037C117.363 10.9014 117.473 11.1266 117.693 11.2794C117.912 11.4296 118.193 11.5047 118.533 11.5047ZM122.922 12.3333V6.15522H124.085V7.13663H124.149C124.262 6.80413 124.46 6.54269 124.744 6.35231C125.031 6.15924 125.356 6.06271 125.718 6.06271C125.793 6.06271 125.881 6.06539 125.983 6.07076C126.088 6.07612 126.17 6.08282 126.229 6.09087V7.2412C126.18 7.2278 126.094 7.21305 125.971 7.19696C125.848 7.17819 125.724 7.1688 125.601 7.1688C125.317 7.1688 125.063 7.22914 124.841 7.3498C124.621 7.46778 124.447 7.63269 124.318 7.84453C124.189 8.05368 124.125 8.29233 124.125 8.56047V12.3333H122.922ZM128.786 4.09588L128.681 9.9642H127.567L127.462 4.09588H128.786ZM128.126 12.4097C127.903 12.4097 127.713 12.3319 127.555 12.1764C127.397 12.0182 127.319 11.8278 127.322 11.6052C127.319 11.3854 127.397 11.1977 127.555 11.0421C127.713 10.8839 127.903 10.8048 128.126 10.8048C128.343 10.8048 128.531 10.8839 128.689 11.0421C128.847 11.1977 128.928 11.3854 128.93 11.6052C128.928 11.7527 128.889 11.8881 128.814 12.0115C128.741 12.1321 128.645 12.2287 128.524 12.3011C128.404 12.3735 128.271 12.4097 128.126 12.4097Z" fill="#FF2A01"/>
</svg>
