<svg width="218" height="38" viewBox="0 0 218 38" fill="none" xmlns="http://www.w3.org/2000/svg">
<g clip-path="url(#clip0_559_60)">
<path d="M55.7921 23.9621L61.0048 25.0999C60.118 29.3331 56.3587 32.0721 51.926 32.0721C46.6066 32.0721 42.2091 28.266 42.2091 22.6103C42.2091 16.9899 46.6066 13.1484 51.926 13.1484C56.2531 13.1484 60.0113 15.8168 61.0048 20.0136L55.6854 21.2948C55.1892 19.1253 53.7347 18.1287 51.926 18.1287C49.3724 18.1287 47.6705 20.0136 47.6705 22.6114C47.6705 25.2434 49.3724 27.0929 51.926 27.0929C53.7358 27.0929 55.1892 26.1317 55.7921 23.9621Z" fill="black"/>
<path d="M62.5308 31.5391V5.92789H68.2044V31.5391H62.5308Z" fill="black"/>
<path d="M71.1838 31.5391V13.6826H76.8574V31.5391H71.1838Z" fill="black"/>
<path d="M92.2481 23.9621L97.4608 25.0999C96.574 29.3331 92.8147 32.0721 88.382 32.0721C83.0626 32.0721 78.6651 28.266 78.6651 22.6103C78.6651 16.9899 83.0626 13.1484 88.382 13.1484C92.7079 13.1484 96.4673 15.8168 97.4608 20.0136L92.1414 21.2948C91.6452 19.1253 90.1907 18.1287 88.382 18.1287C85.8284 18.1287 84.1265 20.0136 84.1265 22.6114C84.1265 25.2434 85.8284 27.0929 88.382 27.0929C90.1918 27.0929 91.6452 26.1317 92.2481 23.9621Z" fill="black"/>
<path d="M111.47 31.5391L105.689 25.101H104.66V31.5391H98.9868V5.92789H104.66V19.7653H105.44L111.079 13.6825H117.923L110.122 22.1843L118.74 31.5391H111.47Z" fill="black"/>
<path d="M136.578 31.5391H130.903V29.8319C129.556 31.2555 127.676 32.0733 125.442 32.0733C121.293 32.0733 118.527 29.1213 118.527 24.6386V13.6826H124.166V23.4291C124.166 25.5281 125.407 26.9506 127.215 26.9506C129.45 26.9506 130.903 25.421 130.903 21.9702V13.6826H136.578V31.5391Z" fill="black"/>
<path d="M143.495 25.7411C143.744 27.2706 145.127 27.84 146.651 27.84C148.141 27.84 148.956 27.2 148.956 26.4175C148.956 25.8128 148.495 25.3504 147.183 25.101L143.565 24.3892C140.267 23.7844 138.388 22.0055 138.388 19.1959C138.388 15.5321 141.544 13.1484 146.047 13.1484C150.48 13.1484 153.424 15.1756 154.133 18.2711L148.955 19.3029C148.778 18.2005 147.714 17.204 145.976 17.204C144.451 17.204 143.955 17.9511 143.955 18.5911C143.955 19.0888 144.167 19.5877 145.303 19.8359L149.488 20.689C152.857 21.4008 154.417 23.428 154.417 26.0599C154.417 30.0084 151.013 32.071 146.331 32.071C142.146 32.071 138.565 30.5414 137.962 26.8777L143.495 25.7411Z" fill="black"/>
<path d="M177.784 22.6103C177.784 28.266 173.812 32.0721 169.095 32.0721C166.79 32.0721 164.947 31.3603 163.564 30.1155V31.538H157.89V5.92789H163.564V15.105C164.947 13.8602 166.79 13.1484 169.095 13.1484C173.811 13.1484 177.784 16.9899 177.784 22.6103ZM172.215 22.6103C172.215 19.8712 170.407 17.9852 167.925 17.9852C165.62 17.9852 163.562 19.8712 163.562 22.6103C163.562 25.3846 165.62 27.2341 167.925 27.2341C170.407 27.2353 172.215 25.3857 172.215 22.6103Z" fill="black"/>
<path d="M194.451 31.5391H177.217V27.6976L185.409 19.9783C186.969 18.5205 188.601 17.0969 188.601 14.9273C188.601 13.2202 187.395 12.0813 185.658 12.0813C183.707 12.0813 182.466 13.2555 182.254 15.9227L176.828 14.8909C177.076 10.0894 180.587 7.17154 185.622 7.17154C190.658 7.17154 194.204 10.16 194.204 14.8909C194.204 18.1994 192.395 20.2619 189.204 23.2856L185.8 26.4153H194.453V31.5391H194.451Z" fill="black"/>
<path d="M215.684 22.6103C215.684 28.266 211.712 32.0721 206.996 32.0721C204.691 32.0721 202.847 31.3603 201.464 30.1155V31.538H195.79V5.92789H201.464V15.105C202.847 13.8602 204.691 13.1484 206.996 13.1484C211.711 13.1484 215.684 16.9899 215.684 22.6103ZM210.116 22.6103C210.116 19.8712 208.307 17.9852 205.825 17.9852C203.52 17.9852 201.463 19.8712 201.463 22.6103C201.463 25.3846 203.52 27.2341 205.825 27.2341C208.307 27.2353 210.116 25.3857 210.116 22.6103Z" fill="black"/>
<path d="M11.948 19.9931L4.65518 20.0375C3.0463 20.0478 2.05054 21.8016 2.86349 23.1945L3.6492 24.5395C3.83768 24.863 3.83995 25.2627 3.65602 25.5884L2.48199 27.6578L4.85615 27.643C5.2297 27.6407 5.57601 27.8389 5.76448 28.1612L6.55019 29.5062C7.36315 30.899 9.37511 30.8865 10.171 29.4834L13.7783 23.1262C14.5742 21.7242 13.558 19.9828 11.948 19.9931Z" fill="#FF2A01"/>
<path d="M13.667 15.0207L9.98255 8.70788C9.1696 7.31503 7.15764 7.32756 6.36171 8.73066L5.59303 10.0848C5.40796 10.4105 5.06393 10.6121 4.69151 10.6144L2.31622 10.6292L3.51636 12.6837C3.70484 13.0072 3.70711 13.4069 3.52317 13.7326L2.75449 15.0868C1.95743 16.491 2.97476 18.2324 4.58365 18.2221L11.8764 18.1777C13.4853 18.1675 14.4811 16.4136 13.667 15.0207Z" fill="#FF2A01"/>
<path d="M18.8206 14.0276L22.4279 7.67037C23.2238 6.26727 22.2076 4.52591 20.5976 4.53616L19.0432 4.54527C18.6696 4.54755 18.3233 4.34939 18.1348 4.02708L16.9347 1.97253L15.7607 4.04189C15.5756 4.36761 15.2316 4.56919 14.8592 4.57147L13.3048 4.58058C11.6959 4.59083 10.7001 6.34471 11.5131 7.73757L15.1975 14.0493C16.0128 15.4433 18.0236 15.4307 18.8206 14.0276Z" fill="#FF2A01"/>
<path d="M22.2542 18.0069L29.5469 17.9625C31.1558 17.9522 32.1516 16.1983 31.3386 14.8055L30.5529 13.4604C30.3644 13.137 30.3622 12.7373 30.5461 12.4115L31.7201 10.3422L29.346 10.357C28.9724 10.3593 28.6261 10.1611 28.4376 9.83879L27.6519 8.49377C26.839 7.10092 24.827 7.11344 24.0311 8.51655L20.4239 14.8738C19.6279 16.2758 20.6441 18.0171 22.2542 18.0069Z" fill="#FF2A01"/>
<path d="M20.5351 22.9793L24.2196 29.291C25.0325 30.6838 27.0445 30.6713 27.8404 29.2682L28.6091 27.914C28.7942 27.5883 29.1382 27.3867 29.5106 27.3845L31.8848 27.3697L30.6846 25.3151C30.4962 24.9917 30.4939 24.5919 30.6778 24.2662L31.4465 22.9121C32.2424 21.5089 31.2262 19.7676 29.6162 19.7778L22.3234 19.8223C20.7168 19.8325 19.721 21.5864 20.5351 22.9793Z" fill="#FF2A01"/>
<path d="M15.3814 23.9724L11.7742 30.3296C10.9783 31.7327 11.9945 33.4741 13.6045 33.4638L15.1589 33.4547C15.5324 33.4524 15.8788 33.6506 16.0672 33.9729L17.2674 36.0275L18.4414 33.9581C18.6265 33.6324 18.9705 33.4308 19.3429 33.4285L20.8973 33.4194C22.5062 33.4092 23.5019 31.6553 22.689 30.2624L19.0046 23.9507C18.1893 22.5567 16.1774 22.5693 15.3814 23.9724Z" fill="#FF2A01"/>
</g>
<defs>
<clipPath id="clip0_559_60">
<rect width="218" height="38" fill="white"/>
</clipPath>
</defs>
</svg>
