<svg width="80" height="80" viewBox="0 0 80 80" fill="none" xmlns="http://www.w3.org/2000/svg">
<path d="M62.5257 43.7022L62.5252 43.7016C53.7871 34.9538 45.0441 26.2096 36.2963 17.4691L36.2961 17.4689C35.4622 16.6362 34.4282 16.1674 33.3454 16.3146C32.2647 16.4615 31.3912 17.1874 30.8026 18.2058L30.8026 18.2059C21.0744 35.0409 11.3517 51.8771 1.63445 68.7145C1.19664 69.4722 0.913804 70.2588 1.02363 71.0978C1.13336 71.936 1.60834 72.6226 2.22357 73.2412C2.40326 73.4229 2.58317 73.6051 2.76335 73.7875C4.00427 75.044 5.25786 76.3132 6.53798 77.5518L6.54032 77.554C6.83445 77.8367 7.15202 78.0685 7.43884 78.2654C7.56262 78.3504 7.67257 78.4238 7.77614 78.4929C7.93626 78.5998 8.0811 78.6965 8.23814 78.8101L8.5005 78.9999H8.82434H9.86196H10.1143L10.3364 78.8802C10.4092 78.841 10.4901 78.7984 10.5757 78.7533C10.7749 78.6484 10.9992 78.5304 11.2036 78.4113C28.0779 68.6641 44.9522 58.9145 61.8265 49.1625L61.8277 49.1618C62.8355 48.5775 63.5355 47.6978 63.6706 46.6257C63.8054 45.5559 63.3485 44.5273 62.5257 43.7022ZM34.3926 25.045L54.9612 45.6019C51.6405 47.557 41.4724 53.5408 31.6028 59.3261C26.0456 62.5835 20.5841 65.7774 16.4931 68.1535C14.4472 69.3418 12.746 70.3245 11.5475 71.008C10.9476 71.3501 10.4775 71.6152 10.1543 71.793C10.0828 71.8324 10.0199 71.8667 9.96525 71.8961C9.11116 71.6888 8.67693 71.252 8.44032 70.8924C8.32692 70.72 8.25201 70.5535 8.20353 70.4185L8.26972 70.304V70.2818C8.87936 69.1946 9.50642 68.1145 10.1542 66.9986C10.2406 66.8498 10.3273 66.7004 10.4145 66.5503H10.425L10.7136 66.05L12.98 62.1216L13.8452 60.6219H13.8352L18.0484 53.327H18.0577L18.3464 52.8269L20.6344 48.8624L20.6346 48.8621L25.9809 39.6057L25.981 39.6056L28.2528 35.6718L32.5177 28.287L32.518 28.2865L34.3926 25.045Z" fill="#595959" stroke="#595959" stroke-width="2"/>
<path d="M78.987 33.5069L78.7809 33.7751C78.758 33.8048 78.737 33.8359 78.7179 33.8681C78.2246 34.872 77.3924 35.5829 76.3793 35.7971C75.3481 36.0152 74.2869 35.6849 73.4351 34.9077L78.987 33.5069ZM78.987 33.5069L78.9881 33.1687M78.987 33.5069L78.9881 33.1687M78.9881 33.1687L78.9917 31.9818L78.9929 31.5851L78.7218 31.2954C78.5218 31.0817 78.3436 30.8757 78.1523 30.6545C78.0328 30.5164 77.9082 30.3724 77.77 30.2169C77.4342 29.8391 77.0551 29.4385 76.6133 29.0857L76.6111 29.0839C74.5916 27.4806 72.1172 26.5565 69.5413 26.4436C65.5898 26.2143 62.1442 27.5111 59.3208 30.307L59.3208 30.307L59.3132 30.3146C58.8318 30.8017 58.5172 31.4288 58.4145 32.1059C58.3121 32.7817 58.426 33.4727 58.7401 34.0798M78.9881 33.1687L58.7401 34.0798M58.7401 34.0798C59.3407 35.2552 60.614 36.0739 62.0976 35.771L62.1143 35.7676L62.1308 35.7637C62.8563 35.5897 63.528 35.2405 64.087 34.7465C65.5024 33.5227 67.06 32.9112 68.8883 32.9602L58.7401 34.0798ZM68.8884 32.9602C70.6326 33.0073 72.0966 33.6875 73.4346 34.9072L68.8884 32.9602Z" fill="#595959" stroke="#595959" stroke-width="2"/>
<path d="M53.5793 11.4557L53.5795 11.4461L53.5796 11.4364C53.5948 8.01461 52.2959 4.71754 49.9511 2.22546L49.9504 2.22471C49.3002 1.53516 48.4869 1.09893 47.6191 1.01475C46.7411 0.929589 45.8801 1.21399 45.1948 1.8345C43.7518 3.1411 43.8597 5.18683 45.1152 6.60947C46.4312 8.11117 47.0473 9.74478 47.045 11.3276C47.0427 12.9103 46.4219 14.5321 45.1032 16.011L45.1032 16.011L45.1011 16.0133C43.8708 17.402 43.7631 19.4188 45.1692 20.7243L45.1692 20.7243C46.5555 22.0113 48.5776 21.8277 49.8804 20.4637L49.8809 20.4632C52.3149 17.9112 53.4991 14.83 53.5793 11.4557Z" fill="#595959" stroke="#595959" stroke-width="2"/>
<path d="M69.367 14.4308L69.2246 14.6913C69.2049 14.7274 69.177 14.7873 69.1259 14.9024C69.1205 14.9146 69.1149 14.9273 69.109 14.9405C69.066 15.0377 69.0118 15.1601 68.9514 15.285C68.8164 15.5644 68.6139 15.936 68.3056 16.257L68.2998 16.2631L68.2997 16.2631C65.6852 18.9397 63.0336 21.5803 60.3785 24.208L69.367 14.4308ZM69.367 14.4308L69.3442 14.1348M69.367 14.4308L69.3442 14.1348M69.3442 14.1348C69.2909 13.4445 69.1506 12.7954 68.8273 12.2346C68.4902 11.6498 67.9995 11.2389 67.3864 10.9603C66.0788 10.3662 64.7185 10.6663 63.6883 11.6913C61.0535 14.3102 58.4273 16.9347 55.8095 19.5646L55.8085 19.5656M69.3442 14.1348L55.8085 19.5656M55.8085 19.5656C54.488 20.8961 54.4064 22.8954 55.7043 24.2252C56.9961 25.5487 59.0388 25.5348 60.3782 24.2083L55.8085 19.5656Z" fill="#595959" stroke="#595959" stroke-width="2"/>
<path d="M40.3517 14.4485L40.342 14.4482C39.4796 14.4147 38.6654 14.042 38.0764 13.4113C37.4898 12.7832 37.1739 11.9498 37.1964 11.0909C37.2165 9.3377 38.7576 7.94571 40.4839 7.95439C42.3494 7.95606 43.7292 9.53038 43.6943 11.3523L40.3517 14.4485ZM40.3517 14.4485L40.3614 14.4487M40.3517 14.4485L40.3614 14.4487M40.3614 14.4487C42.0834 14.4821 43.6608 13.1242 43.6943 11.353L40.3614 14.4487Z" fill="#595959" stroke="#595959" stroke-width="2"/>
<path d="M69.1564 43.4942L69.1467 43.4938C68.2843 43.4603 67.4701 43.0877 66.8811 42.457C66.2945 41.8289 65.9785 40.9954 66.0011 40.1366C66.0212 38.3834 67.5622 36.9914 69.2886 37C71.1541 37.0017 72.5339 38.576 72.499 40.398L69.1564 43.4942ZM69.1564 43.4942L69.1661 43.4944M69.1564 43.4942L69.1661 43.4944M69.1661 43.4944C70.888 43.5278 72.4655 42.1698 72.499 40.3986L69.1661 43.4944Z" fill="#595959" stroke="#595959" stroke-width="2"/>
</svg>
