<svg width="435" height="500" viewBox="0 0 435 500" fill="none" xmlns="http://www.w3.org/2000/svg">
<path d="M141.692 264.578L34.4097 265.24C10.7344 265.386 -3.90777 291.13 8.05992 311.583L19.6114 331.333C22.3899 336.078 22.4212 341.948 19.705 346.729L2.4299 377.115L37.3548 376.901C42.8495 376.87 47.9436 379.771 50.717 384.516L62.2684 404.266C74.2309 424.719 103.828 424.537 115.54 403.938L168.609 310.604C180.322 289.995 165.368 264.432 141.692 264.578Z" fill="#FF4622"/>
<path d="M166.986 191.573L112.772 98.8961C100.81 78.443 71.2131 78.6253 59.5003 99.2242L48.1934 119.115C45.4773 123.896 40.4196 126.86 34.9249 126.896L0 127.11L17.6498 157.276C20.4284 162.021 20.4596 167.891 17.7434 172.672L6.43654 192.563C-5.2762 213.162 9.67823 238.724 33.3535 238.578L140.636 237.917C164.311 237.771 178.948 212.026 166.986 191.573Z" fill="#FF4622"/>
<path d="M242.793 176.995L295.862 83.6615C307.575 63.0625 292.621 37.5 268.946 37.6458L246.087 37.7865C240.592 37.8177 235.498 34.9167 232.72 30.1719L215.07 0L197.795 30.3854C195.079 35.1667 190.021 38.1302 184.526 38.1667L161.668 38.3073C137.993 38.4531 123.351 64.1979 135.318 84.6511L189.532 177.323C201.484 197.771 231.081 197.594 242.793 176.995Z" fill="#FF4622"/>
<path d="M293.307 235.422L400.59 234.761C424.265 234.615 438.908 208.87 426.94 188.417L415.388 168.667C412.61 163.922 412.579 158.052 415.295 153.271L432.57 122.886L397.645 123.099C392.15 123.13 387.056 120.229 384.283 115.484L372.731 95.7345C360.769 75.2814 331.172 75.4636 319.46 96.0626L266.391 189.396C254.678 210.005 269.632 235.568 293.307 235.422Z" fill="#FF4622"/>
<path d="M268.014 308.427L322.228 401.099C334.19 421.552 363.787 421.37 375.5 400.771L386.807 380.88C389.523 376.099 394.58 373.135 400.075 373.099L435 372.885L417.35 342.719C414.572 337.974 414.54 332.104 417.257 327.323L428.563 307.432C440.276 286.833 425.322 261.271 401.647 261.417L294.364 262.078C270.689 262.229 256.052 287.974 268.014 308.427Z" fill="#FF4622"/>
<path d="M192.207 323.005L139.138 416.339C127.425 436.938 142.379 462.5 166.055 462.354L188.913 462.214C194.408 462.182 199.502 465.083 202.28 469.828L219.93 500L237.205 469.615C239.921 464.833 244.979 461.87 250.474 461.833L273.332 461.693C297.007 461.547 311.649 435.802 299.682 415.349L245.478 322.677C233.516 302.229 203.919 302.406 192.207 323.005Z" fill="#FF4622"/>
</svg>
