<svg width="24" height="26" viewBox="0 0 24 26" fill="none" xmlns="http://www.w3.org/2000/svg">
<path d="M23.5375 15.9626C23.2948 15.5876 22.9499 15.2126 22.5028 14.9751C22.1451 14.8001 21.9152 14.5126 21.7108 14.1751C21.0593 13.1001 21.4425 11.6876 22.5284 11.0501C23.8058 10.3376 24.2146 8.75012 23.4737 7.51262L22.6178 6.03762C21.8896 4.80012 20.2928 4.36262 19.0282 5.08762C17.904 5.68762 16.4605 5.28762 15.809 4.22512C15.6046 3.87512 15.4896 3.50012 15.5152 3.12512C15.5535 2.63762 15.4002 2.17512 15.1703 1.80012C14.6976 1.02512 13.8417 0.500122 12.8964 0.500122H11.0952C10.1627 0.525122 9.30679 1.02512 8.83413 1.80012C8.59141 2.17512 8.4509 2.63762 8.47644 3.12512C8.50199 3.50012 8.38702 3.87512 8.18263 4.22512C7.53113 5.28762 6.08762 5.68762 4.97624 5.08762C3.69879 4.36262 2.11476 4.80012 1.37384 6.03762L0.517952 7.51262C-0.210193 8.75012 0.19859 10.3376 1.46326 11.0501C2.54909 11.6876 2.93233 13.1001 2.2936 14.1751C2.07644 14.5126 1.8465 14.8001 1.48881 14.9751C1.05448 15.2126 0.671245 15.5876 0.466854 15.9626C-0.00580157 16.7376 0.0197474 17.7126 0.492403 18.5251L1.37384 20.0251C1.8465 20.8251 2.72793 21.3251 3.6477 21.3251C4.08203 21.3251 4.59301 21.2001 5.00179 20.9501C5.32115 20.7376 5.70439 20.6626 6.12594 20.6626C7.39061 20.6626 8.4509 21.7001 8.47644 22.9376C8.47644 24.3751 9.6517 25.5001 11.1335 25.5001H12.8709C14.3399 25.5001 15.5152 24.3751 15.5152 22.9376C15.5535 21.7001 16.6138 20.6626 17.8785 20.6626C18.2872 20.6626 18.6705 20.7376 19.0026 20.9501C19.4114 21.2001 19.9096 21.3251 20.3567 21.3251C21.2637 21.3251 22.1451 20.8251 22.6178 20.0251L23.512 18.5251C23.9719 17.6876 24.0102 16.7376 23.5375 15.9626" fill="#130F26"/>
<path d="M12.015 16.5376C10.0094 16.5376 8.38702 14.9751 8.38702 13.0126C8.38702 11.0501 10.0094 9.4751 12.015 9.4751C14.0206 9.4751 15.6046 11.0501 15.6046 13.0126C15.6046 14.9751 14.0206 16.5376 12.015 16.5376" fill="white"/>
</svg>
