<svg width="42" height="40" viewBox="0 0 42 40" fill="none" xmlns="http://www.w3.org/2000/svg">
<path d="M33.3303 24.8335C32.7908 25.3564 32.5428 26.1127 32.6658 26.8543L34.5178 37.1043C34.6741 37.9731 34.3074 38.8522 33.5803 39.3543C32.8678 39.8752 31.9199 39.9377 31.1428 39.521L21.9158 34.7085C21.5949 34.5377 21.2387 34.446 20.8741 34.4356H20.3095C20.1137 34.4647 19.922 34.5272 19.747 34.6231L10.5178 39.4585C10.0616 39.6877 9.54492 39.7689 9.03867 39.6877C7.80534 39.4543 6.98242 38.2793 7.18451 37.0397L9.03867 26.7897C9.16159 26.0418 8.91367 25.2814 8.37409 24.7502L0.851174 17.4585C0.222007 16.8481 0.00325689 15.9314 0.290757 15.1043C0.569924 14.2793 1.28242 13.6772 2.14284 13.5418L12.497 12.0397C13.2845 11.9585 13.9762 11.4793 14.3303 10.771L18.8928 1.41683C19.0012 1.2085 19.1408 1.01683 19.3095 0.854329L19.497 0.708496C19.5949 0.600163 19.7074 0.510579 19.8324 0.437663L20.0595 0.354329L20.4137 0.208496H21.2908C22.0741 0.289746 22.7637 0.758496 23.1241 1.4585L27.747 10.771C28.0803 11.4522 28.7283 11.9252 29.4762 12.0397L39.8303 13.5418C40.7053 13.6668 41.4366 14.271 41.7262 15.1043C41.9991 15.9397 41.7637 16.8564 41.122 17.4585L33.3303 24.8335Z" fill="#130F26"/>
</svg>
