<svg width="59" height="47" viewBox="0 0 59 47" fill="none" xmlns="http://www.w3.org/2000/svg">
<path fill-rule="evenodd" clip-rule="evenodd" d="M17.45 25.3502C18.85 26.1502 19.95 27.3002 20.75 28.8002C21.65 30.2002 22.1 31.8002 22.1 33.6002C22.1 36.7002 21.05 39.3002 18.95 41.4002C16.95 43.5002 14.5 44.5502 11.6 44.5502C8.9 44.5502 6.6 43.6502 4.7 41.8502C2.9 40.0502 2 37.7502 2 34.9502C2 33.4502 2.25 32.0502 2.75 30.7502C3.25 29.3502 4.15 27.5002 5.45 25.2002L18.05 2.7002H27.5L17.45 25.3502ZM3.70686 24.2196C2.39405 26.5426 1.43258 28.4996 0.874564 30.055C0.285787 31.5946 0 33.2322 0 34.9502C0 38.2224 1.07144 41.0501 3.28579 43.2644L3.30489 43.2835L3.32451 43.3021C5.60882 45.4662 8.40621 46.5502 11.6 46.5502C15.0392 46.5502 18.0068 45.2819 20.3815 42.7971C22.863 40.307 24.1 37.1964 24.1 33.6002C24.1 31.4776 23.5709 29.5198 22.4764 27.7879C21.8128 26.5634 20.9683 25.5141 19.9452 24.658L30.5755 0.700195H16.8778L3.70887 24.2161C3.7082 24.2173 3.70753 24.2185 3.70686 24.2196ZM45.8 25.3502C47.2 26.1502 48.3 27.3002 49.1 28.8002C50 30.2002 50.45 31.8002 50.45 33.6002C50.45 36.7002 49.4 39.3002 47.3 41.4002C45.3 43.5002 42.85 44.5502 39.95 44.5502C37.25 44.5502 34.95 43.6502 33.05 41.8502C31.25 40.0502 30.35 37.7502 30.35 34.9502C30.35 33.4502 30.6 32.0502 31.1 30.7502C31.6 29.3502 32.5 27.5002 33.8 25.2002L46.4 2.7002H55.85L45.8 25.3502ZM32.0569 24.2196C30.744 26.5426 29.7825 28.4997 29.2245 30.0552C28.6358 31.5947 28.35 33.2323 28.35 34.9502C28.35 38.2224 29.4214 41.0501 31.6358 43.2644L31.6549 43.2835L31.6745 43.3021C33.9588 45.4662 36.7562 46.5502 39.95 46.5502C43.3892 46.5502 46.3568 45.2819 48.7315 42.7971C51.213 40.307 52.45 37.1964 52.45 33.6002C52.45 31.4776 51.9209 29.5198 50.8264 27.7878C50.1628 26.5634 49.3183 25.5141 48.2952 24.658L58.9255 0.700195H45.2278L32.0589 24.2161C32.0582 24.2173 32.0575 24.2185 32.0569 24.2196Z" fill="#FF2A01"/>
</svg>
