<svg width="42" height="38" viewBox="0 0 42 38" fill="none" xmlns="http://www.w3.org/2000/svg">
<path fill-rule="evenodd" clip-rule="evenodd" d="M37.1686 19.0021C37.1686 20.6968 38.5603 22.0758 40.2707 22.0758C41.1332 22.0758 41.8332 22.7694 41.8332 23.624V29.1997C41.8332 33.9145 37.9623 37.75 33.204 37.75H8.79776C4.03942 37.75 0.166504 33.9145 0.166504 29.1997V23.624C0.166504 22.7694 0.866504 22.0758 1.729 22.0758C3.4415 22.0758 4.83317 20.6968 4.83317 19.0021C4.83317 17.3506 3.49775 16.1079 1.729 16.1079C1.31442 16.1079 0.918587 15.9448 0.624837 15.6538C0.331087 15.3627 0.166504 14.9684 0.166504 14.5597L0.170671 8.80238C0.170671 4.08753 4.0415 0.25 8.79984 0.25H33.1998C37.9582 0.25 41.8311 4.08753 41.8311 8.80238L41.8332 14.3801C41.8332 14.7888 41.6686 15.1852 41.3769 15.4742C41.0832 15.7652 40.6873 15.9283 40.2707 15.9283C38.5603 15.9283 37.1686 17.3073 37.1686 19.0021ZM25.6915 20.35L28.1478 17.9802C28.5748 17.5715 28.7228 16.9687 28.5373 16.4114C28.354 15.854 27.8748 15.4577 27.2957 15.3772L23.9019 14.8859L22.3832 11.839C22.1228 11.3146 21.5936 10.9885 21.004 10.9864H20.9998C20.4123 10.9864 19.8832 11.3126 19.6186 11.8369L18.0998 14.8859L14.7123 15.3751C14.1269 15.4577 13.6478 15.854 13.4623 16.4114C13.279 16.9687 13.4269 17.5715 13.8519 17.9802L16.3082 20.35L15.729 23.7004C15.629 24.2784 15.8644 24.8523 16.3436 25.197C16.6144 25.389 16.929 25.4881 17.2478 25.4881C17.4915 25.4881 17.7373 25.4282 17.9623 25.3106L20.9998 23.7293L24.0311 25.3064C24.5561 25.5851 25.179 25.5418 25.6561 25.195C26.1373 24.8523 26.3728 24.2784 26.2728 23.7004L25.6915 20.35Z" fill="#130F26"/>
</svg>
