<svg width="34" height="35" viewBox="0 0 34 35" fill="none" xmlns="http://www.w3.org/2000/svg">
<rect x="0.642853" y="1.21436" width="32.7143" height="32.7143" rx="16.3571" stroke="#595959"/>
<path d="M9.69525 21.8634C11.3121 21.9711 12.7619 21.5905 14.0817 20.6109C12.6962 20.4853 11.7855 19.8003 11.2708 18.5336H12.5728L12.58 18.4864C11.1215 18.037 10.3366 17.0701 10.22 15.5324C10.6616 15.7406 11.0788 15.8846 11.5718 15.8898C10.8081 15.2855 10.3352 14.5547 10.2589 13.6152C10.2108 13.0246 10.3712 12.4769 10.6722 11.9406C12.3044 13.8153 14.3419 14.8677 16.8171 15.0249C16.8171 14.6944 16.7965 14.3885 16.8209 14.0868C16.9448 12.5506 18.2856 11.366 19.8579 11.3915C20.6334 11.3953 21.3766 11.6978 21.9279 12.2342C21.9562 12.2669 21.9938 12.2905 22.0357 12.3021C22.0777 12.3137 22.1222 12.3127 22.1637 12.2994C22.7236 12.1695 23.2638 11.9681 23.7705 11.7003C23.8021 11.6838 23.8338 11.6672 23.8665 11.6531C23.8746 11.6498 23.8876 11.6568 23.9207 11.663C23.697 12.3239 23.2774 12.8319 22.6898 13.2134L22.7181 13.2724L24.3048 12.839C24.2635 12.8999 24.2222 12.9651 24.1766 13.0279C23.836 13.4918 23.4262 13.9026 22.9611 14.2464C22.9151 14.276 22.8784 14.3176 22.8551 14.3665C22.8317 14.4155 22.8227 14.4698 22.829 14.5235C22.9366 17.834 20.9361 21.0991 17.9006 22.4078C15.1642 23.5881 12.4629 23.4299 9.85656 21.9649C9.80039 21.9357 9.74806 21.8979 9.69525 21.8634Z" fill="#595959"/>
</svg>
