<svg width="45" height="44" viewBox="0 0 45 44" fill="none" xmlns="http://www.w3.org/2000/svg">
<path d="M22.5033 0.859375C10.596 0.859375 0.941895 10.5135 0.941895 22.4208C0.941895 34.3281 10.596 43.9823 22.5033 43.9823C34.4106 43.9823 44.0648 34.3281 44.0648 22.4208C44.0648 10.5135 34.4106 0.859375 22.5033 0.859375ZM34.1178 17.9917C34.1286 18.2307 34.1339 18.4679 34.1339 18.7051C34.1339 26.0144 28.5729 34.4377 18.4013 34.4377C15.2767 34.4377 12.3713 33.5232 9.92583 31.9528C10.3589 32.0049 10.7991 32.0282 11.2465 32.0282C13.8392 32.0282 16.2218 31.146 18.112 29.6601C15.6917 29.6152 13.6488 28.016 12.9462 25.8203C13.284 25.885 13.6308 25.9192 13.9866 25.9192C14.4915 25.9192 14.982 25.8509 15.4438 25.7251C12.9139 25.2184 11.0075 22.9832 11.0075 20.3042C11.0075 20.2808 11.0075 20.2575 11.0075 20.2341C11.7532 20.6492 12.6048 20.8971 13.5122 20.9259C12.0299 19.9359 11.0524 18.2415 11.0524 16.3243C11.0524 15.3091 11.3237 14.3586 11.7999 13.5447C14.5274 16.8903 18.6025 19.0932 23.1969 19.3232C23.1035 18.9189 23.055 18.4966 23.055 18.0636C23.055 15.0109 25.5309 12.5331 28.5837 12.5331C30.1738 12.5331 31.6112 13.2051 32.6192 14.2796C33.8788 14.0298 35.0629 13.5716 36.132 12.9374C35.7187 14.2293 34.8419 15.3109 33.6991 15.9973C34.8167 15.8643 35.8822 15.5679 36.8758 15.1277C36.1374 16.2381 35.2012 17.2101 34.1178 17.9917Z" fill="#007210"/>
</svg>
