<svg width="42" height="42" viewBox="0 0 42 42" fill="none" xmlns="http://www.w3.org/2000/svg">
<path fill-rule="evenodd" clip-rule="evenodd" d="M18.3006 3.33129C16.904 3.33129 15.7159 4.30175 15.3824 5.60976H26.5964C26.2629 4.30175 25.0748 3.33129 23.6783 3.33129H18.3006ZM29.7646 5.60976H33.8917C38.2689 5.60976 41.8332 9.21734 41.8332 13.6477C41.8332 13.6477 41.7081 15.5232 41.6664 18.135C41.6623 18.3418 41.5622 18.5443 41.3975 18.6667C40.395 19.4072 39.4778 20.019 39.3945 20.0612C35.9344 22.3818 31.9136 24.0147 27.6302 24.827C27.3509 24.8818 27.0758 24.7362 26.9341 24.4873C25.7335 22.4071 23.4907 21.0527 20.9894 21.0527C18.5048 21.0527 16.2412 22.3924 15.0052 24.4746C14.8614 24.7194 14.5904 24.8607 14.3132 24.808C10.0652 23.9936 6.04444 22.3628 2.60522 20.0823L0.604223 18.6899C0.437473 18.5844 0.333254 18.3945 0.333254 18.1835C0.270723 17.1076 0.166504 13.6477 0.166504 13.6477C0.166504 9.21734 3.73079 5.60976 8.10798 5.60976H12.2142C12.6102 2.5507 15.174 0.166748 18.3006 0.166748H23.6783C26.8048 0.166748 29.3686 2.5507 29.7646 5.60976ZM41.1245 22.6985L41.0411 22.7407C36.8307 25.5677 31.7656 27.4453 26.4505 28.2259C25.7001 28.3314 24.9497 27.8461 24.7413 27.0867C24.2827 25.3567 22.8028 24.2175 21.0311 24.2175H21.0103H20.9686C19.1969 24.2175 17.7169 25.3567 17.2584 27.0867C17.0499 27.8461 16.2996 28.3314 15.5492 28.2259C10.234 27.4453 5.16901 25.5677 0.958567 22.7407C0.937723 22.7196 0.729285 22.593 0.562535 22.6985C0.374941 22.804 0.374941 23.0571 0.374941 23.0571L0.520848 33.8166C0.520848 38.2469 4.06429 41.8334 8.44147 41.8334H33.5374C37.9146 41.8334 41.458 38.2469 41.458 33.8166L41.6247 23.0571C41.6247 23.0571 41.6247 22.804 41.4371 22.6985C41.3329 22.6352 41.2079 22.6563 41.1245 22.6985ZM22.5527 31.5381C22.5527 32.4242 21.8649 33.1204 20.9894 33.1204C20.1348 33.1204 19.4261 32.4242 19.4261 31.5381V28.8166C19.4261 27.9516 20.1348 27.2343 20.9894 27.2343C21.8649 27.2343 22.5527 27.9516 22.5527 28.8166V31.5381Z" fill="#130F26"/>
</svg>
